<svg width="101" height="100" viewBox="0 0 101 100" fill="none" xmlns="http://www.w3.org/2000/svg">
<g clip-path="url(#clip0_318_2971)">
<g clip-path="url(#clip1_318_2971)">
<path d="M74.8847 0.179688C88.2157 0.179688 99.0227 10.9866 99.0227 24.3176V76.0418C99.0227 89.3728 88.2157 100.18 74.8847 100.18C63.3568 100.18 53.7185 96.6957 51.3215 85.8893C48.9245 96.6957 39.2862 100.18 27.7583 100.18C14.4273 100.18 3.62036 89.3728 3.62036 76.0418V24.3176C3.62036 10.9866 14.4273 0.179688 27.7583 0.179688C39.2858 0.179688 48.9241 2.51363 51.3215 13.3195C53.7189 2.51363 63.3572 0.179688 74.8847 0.179688Z" fill="white"/>
<path d="M28.9077 19.7202C33.3514 19.7202 36.9536 23.3225 36.9536 27.7661V73.7437C36.9534 78.1871 33.3512 81.7896 28.9077 81.7896C24.4642 81.7895 20.8621 78.1871 20.8618 73.7437V49.6528L28.9077 45.0073L20.8618 40.3618V27.7661C20.8619 23.3225 24.4641 19.7203 28.9077 19.7202Z" fill="black"/>
<path d="M73.7354 19.7202C78.179 19.7202 81.7812 23.3225 81.7812 27.7661V73.7437C81.781 78.1871 78.1789 81.7896 73.7354 81.7896C69.2919 81.7895 65.6897 78.1871 65.6895 73.7437V49.6528L73.7354 45.0073L65.6895 40.3618V27.7661C65.6895 23.3225 69.2917 19.7203 73.7354 19.7202Z" fill="black"/>
<rect x="10.5171" y="7.07665" width="36.7816" height="86.2069" rx="18.3908" stroke="black" stroke-width="2.29885"/>
<rect x="55.3445" y="7.07665" width="36.7816" height="86.2069" rx="18.3908" stroke="black" stroke-width="2.29885"/>
</g>
</g>
<defs>
<clipPath id="clip0_318_2971">
<rect width="100" height="100" fill="white" transform="translate(0.876709)"/>
</clipPath>
<clipPath id="clip1_318_2971">
<rect width="95.4023" height="100" fill="white" transform="translate(3.62036 0.179688)"/>
</clipPath>
</defs>
</svg>
