<svg width="100" height="100" viewBox="0 0 100 100" fill="none" xmlns="http://www.w3.org/2000/svg">
<path d="M30.6325 85.005C28.7177 85.005 27.1566 84.3718 26.0095 83.1256C25.6817 82.7738 25.4057 82.412 25.1556 82.0803C24.9658 81.8291 24.7933 81.5678 24.6208 81.3065L20.8603 75.7184C14.5037 66.2812 8.14707 56.8338 1.79043 47.3965C1.39368 46.8035 0.98831 46.1503 0.565684 45.4065C0.298309 44.9342 0.177562 44.4417 0.117187 44.11C-0.0984388 43.0146 0.444936 41.9995 1.43681 41.6477C1.74731 41.5371 2.16993 41.4065 2.61844 41.3663C3.31706 41.316 4.03294 41.2859 4.74881 41.2859C10.3551 41.2658 15.9613 41.2457 21.5676 41.2256H21.6021C23.8532 41.2256 26.044 41.6879 28.1226 42.6025C29.011 42.9944 29.8821 43.4367 30.7187 43.8487C31.0896 44.0397 31.4691 44.2206 31.84 44.4116L35.7471 46.3211C35.497 45.9191 35.29 45.507 35.1089 45.1452C34.876 44.6829 34.807 44.301 34.7725 44.0095C34.6259 42.8839 35.1865 41.909 36.1784 41.5874C36.6269 41.4467 37.015 41.3663 37.3859 41.3462C38.2915 41.306 39.1971 41.2959 40.1027 41.2959C44.2255 41.2959 48.3396 41.2959 52.4624 41.316C53.9373 41.316 55.0585 41.6175 56.0073 42.2708C56.7231 42.7633 57.3096 43.3462 57.7581 44.0095C59.647 46.8136 61.5359 49.6176 63.4248 52.4217L64.684 54.2911C70.4024 62.7836 76.1122 71.2661 81.8219 79.7587C82.0979 80.1708 82.3481 80.613 82.5896 81.1155C82.7793 81.5075 82.8914 81.9698 82.9259 82.4421C82.9949 83.5577 82.3481 84.4723 81.3217 84.7135C80.8991 84.814 80.5196 84.8643 80.1573 84.8743H79.7088C77.9062 84.9045 76.1035 84.9246 74.3009 84.9346C72.3344 84.9346 70.3765 84.9246 68.41 84.9145C65.7967 84.9045 63.1833 84.8944 60.5699 84.8944H60.5526C58.7931 84.8944 57.094 84.5125 55.369 83.7386C54.3168 83.2663 53.2818 82.7537 52.2468 82.2512L47.2356 79.7989C47.3909 80.0401 47.5461 80.2713 47.7014 80.5125C47.9688 80.9446 48.1758 81.3969 48.2965 81.8391C48.4776 82.4723 48.4259 83.1256 48.1499 83.6683C47.9343 84.0904 47.4858 84.6432 46.5715 84.8442C46.1316 84.9447 45.6745 84.9949 45.226 84.9949C42.1555 84.9949 39.085 84.9949 36.0145 84.9949H30.6411L30.6325 85.005ZM3.07556 44.3613C3.32569 44.7834 3.57581 45.1754 3.81731 45.5372C10.1739 54.9845 16.5306 64.4218 22.8872 73.8591L26.6563 79.4572C26.7943 79.6682 26.941 79.8793 27.0962 80.0803C27.3119 80.3617 27.5275 80.6431 27.7776 80.9145C28.4417 81.6381 29.3819 81.9899 30.6411 81.9899H36.0145C39.085 81.9899 42.1555 81.9899 45.2174 81.9899C45.2778 81.9899 45.3295 81.9899 45.3899 81.9899C45.2001 81.6984 45.0104 81.417 44.812 81.1356L43.9064 79.7889C43.4665 79.1356 43.0353 78.4924 42.5954 77.8391C42.4143 77.5778 42.0693 77.0853 42.0693 76.3215C42.0693 75.829 42.2763 75.3667 42.6213 75.0853C42.9663 74.8039 43.4148 74.7335 43.8115 74.9144L43.9668 74.9848C44.0961 75.035 44.1996 75.0853 44.3031 75.1355L53.2214 79.5074C54.2305 79.9999 55.2396 80.5024 56.2746 80.9647C57.6978 81.608 59.0864 81.9195 60.5268 81.9195C60.8459 81.9497 61.1478 81.9195 61.4583 81.9195C63.7698 81.9195 66.0899 81.9296 68.4014 81.9396C70.3593 81.9396 72.3258 81.9597 74.2837 81.9597C76.0777 81.9698 77.8631 81.9396 79.6571 81.9095H79.9244C79.8727 81.819 79.8209 81.7386 79.7692 81.6582C74.0594 73.1657 68.3497 64.6831 62.6313 56.1906L61.372 54.3212C59.4831 51.5172 57.5943 48.7131 55.7054 45.9091C55.4553 45.5372 55.1103 45.1955 54.6704 44.904C54.1356 44.5422 53.4284 44.3714 52.4365 44.3613C48.3138 44.3613 44.1996 44.3412 40.0855 44.3412C39.292 44.3412 38.4985 44.3412 37.7136 44.3814C37.774 44.4819 37.8344 44.5824 37.8947 44.6829C38.5157 45.6276 39.154 46.5724 39.7922 47.5071L40.6892 48.8337C41.0774 49.4166 41.0515 50.2408 40.6202 50.7835L39.6715 49.7583L40.5944 50.8136C40.2407 51.2659 39.6542 51.4569 39.1626 51.2559L38.9815 51.1855C38.8262 51.1252 38.671 51.0548 38.5157 50.9845L30.8136 47.2156C30.4341 47.0246 30.046 46.8337 29.6665 46.6427C28.8557 46.2307 28.0105 45.8086 27.1738 45.4467C25.3971 44.6628 23.5082 44.2608 21.5762 44.2608H21.5417C15.9355 44.2708 10.3292 44.2909 4.73157 44.3211C4.17094 44.3211 3.61031 44.3412 3.05831 44.3814L3.07556 44.3613Z" fill="#F3711B"/>
<path d="M47.693 58.764C45.7783 58.764 44.2172 58.1308 43.07 56.8846C42.7423 56.5328 42.4576 56.1609 42.2161 55.8393C42.0264 55.5881 41.8539 55.3368 41.6814 55.0755L37.9209 49.4875C31.5643 40.0502 25.2076 30.6028 18.851 21.1656C18.4542 20.5726 18.0575 19.9294 17.6262 19.1756C17.3589 18.7133 17.2467 18.2409 17.1777 17.8791C16.9621 16.7735 17.5055 15.7685 18.4974 15.4167C18.8079 15.3062 19.2305 15.1755 19.679 15.1353C20.3776 15.0851 21.0935 15.0549 21.8094 15.0549C27.4156 15.0348 33.0219 15.0147 38.6281 14.9946H38.6626C40.9138 14.9946 43.1045 15.4569 45.1832 16.3715C46.0802 16.7635 46.9426 17.2057 47.7879 17.6278C48.1588 17.8188 48.5383 17.9997 48.9092 18.1906L52.8163 20.1002C52.5662 19.7083 52.3764 19.3163 52.178 18.9344L52.1349 18.8439C51.9452 18.462 51.8762 18.0801 51.8417 17.7987C51.695 16.673 52.2557 15.6982 53.2475 15.3765C53.696 15.2358 54.0842 15.1554 54.455 15.1353C55.3607 15.0951 56.2663 15.0851 57.1719 15.0851C61.2947 15.0851 65.4088 15.0851 69.5316 15.1052C71.0064 15.1052 72.1277 15.4067 73.0764 16.06C73.7923 16.5524 74.3788 17.1354 74.8273 17.7987C76.7162 20.6027 78.6051 23.4068 80.494 26.2108L83.4006 30.5224C88.567 38.1909 93.7333 45.8694 98.8911 53.5378C99.1671 53.9499 99.4172 54.4021 99.6587 54.8946C99.8485 55.2866 99.9606 55.7489 99.9951 56.2212C100.064 57.3368 99.4172 58.2514 98.3909 58.4926C97.9855 58.5931 97.5887 58.6434 97.2265 58.6534H96.778C94.9753 58.6836 93.1727 58.7037 91.3615 58.7137C89.395 58.7137 87.4371 58.7037 85.4706 58.6936C82.8572 58.6836 80.2438 58.6735 77.6304 58.6735H77.6132C75.8537 58.6735 74.1546 58.2916 72.4296 57.5177C71.3601 57.0353 70.3078 56.5127 69.2469 56.0001L68.5052 55.6383C67.0993 54.9549 65.7021 54.2614 64.2962 53.578C64.4514 53.8192 64.6067 54.0504 64.7619 54.2916C65.0293 54.7237 65.2363 55.176 65.3571 55.6182C65.5382 56.2514 65.4864 56.9047 65.2104 57.4373C64.9948 57.8594 64.5463 58.4122 63.6321 58.6132C63.1922 58.7137 62.7437 58.764 62.2952 58.764C59.2247 58.764 56.1542 58.764 53.0837 58.764H47.7103H47.693ZM20.1361 18.1203C20.3949 18.5424 20.6364 18.9344 20.8779 19.2962C27.2345 28.7435 33.5911 38.1808 39.9478 47.6181L43.7169 53.2162C43.8549 53.4272 43.9929 53.6383 44.1482 53.8393C44.3638 54.1207 44.588 54.4021 44.8295 54.6735C45.4937 55.3971 46.4338 55.7489 47.693 55.7489H53.0664C56.1369 55.7489 59.2074 55.7489 62.2693 55.7489C62.3297 55.7489 62.3814 55.7489 62.4418 55.7489C62.2521 55.4574 62.0623 55.176 61.8725 54.8946L60.9842 53.588C60.5357 52.9247 60.0872 52.2614 59.6473 51.5981C59.4662 51.3368 59.1212 50.8443 59.1212 50.0805C59.1212 49.588 59.3282 49.1257 59.6732 48.8443C60.0182 48.5629 60.4667 48.4925 60.8634 48.6734L61.0359 48.7438C61.1567 48.794 61.2602 48.8342 61.3551 48.8845L63.908 50.1408C65.7624 51.0553 67.6254 51.9599 69.4798 52.8745L70.2302 53.2463C71.2566 53.7488 72.2916 54.2614 73.3352 54.7338C74.7583 55.377 76.1469 55.6886 77.5873 55.6886C77.9151 55.6886 78.2083 55.6886 78.5188 55.6886C80.8303 55.6886 83.1505 55.6986 85.462 55.7087C87.4198 55.7087 89.3863 55.7288 91.3442 55.7288C93.1468 55.7288 94.9322 55.7087 96.7176 55.6785H96.985C96.9332 55.5881 96.8815 55.5077 96.8297 55.4273C91.672 47.7588 86.5056 40.0904 81.3392 32.4119L78.4326 28.0903C76.5437 25.2862 74.6548 22.4822 72.7659 19.6781C72.5158 19.3062 72.1708 18.9645 71.7309 18.6731C71.1962 18.3113 70.4889 18.1404 69.4971 18.1303C65.3829 18.1303 61.2602 18.1102 57.146 18.1102C56.3525 18.1102 55.559 18.1102 54.7742 18.1504C54.8345 18.2509 54.8949 18.3615 54.9553 18.452C55.5763 19.3967 56.2145 20.3314 56.8442 21.2661L57.7498 22.6028C58.1465 23.1857 58.112 24.0299 57.6722 24.5626L56.732 23.5274L57.6549 24.5927C57.3013 25.045 56.7234 25.236 56.2318 25.0249L56.0507 24.9545C55.8954 24.8942 55.7315 24.8239 55.5849 24.7535L47.8828 20.9846C47.5033 20.7937 47.1238 20.6027 46.7357 20.4118C45.9249 19.9997 45.0797 19.5776 44.243 19.2158C42.4663 18.4319 40.5774 18.0298 38.6454 18.0298H38.6109C33.0046 18.0399 27.3984 18.06 21.8007 18.0901C21.2401 18.0901 20.6795 18.1102 20.1275 18.1504L20.1361 18.1203Z" fill="#F3711B"/>
<path d="M1.2902 44.5628C1.0142 44.5628 0.738205 44.4623 0.50533 44.2512C-0.0639212 43.7386 -0.167425 42.7939 0.272451 42.1406L17.0567 16.7534C17.4966 16.0901 18.3074 15.9695 18.868 16.482C19.4372 16.9946 19.5407 17.9393 19.1009 18.5926L2.31658 43.9698C2.05783 44.3517 1.67833 44.5527 1.2902 44.5527V44.5628Z" fill="#F3711B"/>
<path d="M81.779 83.458C81.503 83.458 81.227 83.3575 80.9941 83.1464C80.4248 82.6338 80.3213 81.6891 80.7612 81.0358L97.5455 55.6587C97.9854 54.9953 98.7961 54.8747 99.3568 55.3873C99.926 55.8999 100.03 56.8446 99.5896 57.4979L82.8053 82.8751C82.5466 83.257 82.1671 83.458 81.779 83.458Z" fill="#F3711B"/>
</svg>
