<svg width="100" height="100" viewBox="0 0 100 100" fill="none" xmlns="http://www.w3.org/2000/svg">
<g clip-path="url(#clip0_318_2949)">
<g clip-path="url(#clip1_318_2949)">
<path fill-rule="evenodd" clip-rule="evenodd" d="M56.2255 2.98752C56.2255 1.33892 54.8865 0 53.2379 0H46.7711C45.1225 0 43.7835 1.33892 43.7835 2.98752V15.056C43.7835 18.1073 39.7394 19.1912 38.2093 16.5498L32.1613 6.07523C31.3325 4.64523 29.5108 4.15338 28.0808 4.98224L22.4792 8.21568C21.0492 9.04454 20.5574 10.8662 21.3862 12.2962L26.8968 21.8417C28.4269 24.4922 25.4667 27.4524 22.8162 25.9222L13.2707 20.4117C11.8407 19.5828 10.0191 20.0747 9.19022 21.5047L5.95677 27.1063C5.12792 28.5363 5.61977 30.358 7.04977 31.1868L16.6681 36.7338C19.3186 38.264 18.2348 42.308 15.1744 42.308H3.97116C2.32256 42.308 0.983643 43.647 0.983643 45.2956V51.7625C0.983643 53.4111 2.32256 54.75 3.97116 54.75H20.275C23.3263 54.75 24.4102 58.7941 21.7688 60.3243L7.04977 68.8223C5.61977 69.6511 5.12792 71.4728 5.95677 72.9028L9.19022 78.5044C10.0191 79.9344 11.8407 80.4172 13.2707 79.5974L22.8162 74.0869C25.4576 72.5567 28.4269 75.5169 26.8968 78.1674L21.3862 87.7129C20.5574 89.1429 21.0492 90.9646 22.4792 91.7934L28.0808 95.0269C29.5108 95.8466 31.3325 95.3639 32.1613 93.9339L38.2093 83.4593C39.7394 80.8179 43.7835 81.9018 43.7835 84.9531V97.0216C43.7835 98.6702 45.1225 100.009 46.7711 100.009H53.2379C54.8865 100.009 56.2255 98.6702 56.2255 97.0216V82.503C56.2255 79.4517 60.2696 78.3678 61.7997 81.0092L67.8294 91.4473C68.6583 92.8773 70.48 93.3692 71.91 92.5403L77.5116 89.3069C78.9416 88.4871 79.4334 86.6563 78.6046 85.2263L73.094 75.6808C71.5638 73.0303 74.524 70.0701 77.1746 71.6003L86.72 77.1108C88.1501 77.9397 89.9717 77.4479 90.8006 76.0178L94.034 70.4162C94.8629 68.9862 94.371 67.1646 92.941 66.3357L82.5302 60.3243C79.8797 58.7941 80.9636 54.75 84.024 54.75H96.0196C97.6682 54.75 99.0071 53.4111 99.0071 51.7625V45.2956C99.0071 43.647 97.6682 42.308 96.0196 42.308H84.8164C81.7651 42.308 80.6812 38.264 83.3227 36.7338L92.941 31.1868C94.371 30.358 94.8629 28.5363 94.034 27.1063L90.8006 21.5047C89.9717 20.0747 88.1501 19.5828 86.72 20.4117L77.1746 25.9222C74.524 27.4524 71.5638 24.4922 73.094 21.8417L78.6046 12.2962C79.4334 10.8662 78.9416 9.04454 77.5116 8.21568L71.91 4.98224C70.48 4.15338 68.6583 4.64523 67.8294 6.07523L61.7997 16.5133C60.2696 19.1639 56.2255 18.08 56.2255 15.0196V2.98752Z" fill="#F4ABC9"/>
</g>
</g>
<defs>
<clipPath id="clip0_318_2949">
<rect width="100" height="100" fill="white"/>
</clipPath>
<clipPath id="clip1_318_2949">
<rect width="98.0326" height="100" fill="white" transform="translate(0.983643)"/>
</clipPath>
</defs>
</svg>
