<svg width="101" height="100" viewBox="0 0 101 100" fill="none" xmlns="http://www.w3.org/2000/svg">
<g clip-path="url(#clip0_343_1055)">
<path d="M31.5089 85.005C29.5942 85.005 28.0331 84.3718 26.8859 83.1256C26.5582 82.7738 26.2822 82.412 26.0321 82.0803C25.8423 81.8291 25.6698 81.5678 25.4973 81.3065L21.7368 75.7184C15.3802 66.2812 9.02353 56.8338 2.6669 47.3965C2.27015 46.8035 1.86477 46.1503 1.44215 45.4065C1.17477 44.9342 1.05403 44.4417 0.993651 44.11C0.778026 43.0146 1.3214 41.9995 2.31328 41.6477C2.62378 41.5371 3.0464 41.4065 3.4949 41.3663C4.19353 41.316 4.9094 41.2859 5.62528 41.2859C11.2315 41.2658 16.8378 41.2457 22.4441 41.2256H22.4786C24.7297 41.2256 26.9204 41.6879 28.9991 42.6025C29.8874 42.9944 30.7586 43.4367 31.5952 43.8487C31.9661 44.0397 32.3456 44.2206 32.7164 44.4116L36.6236 46.3211C36.3735 45.9191 36.1665 45.507 35.9853 45.1452C35.7525 44.6829 35.6834 44.301 35.6489 44.0095C35.5023 42.8839 36.063 41.909 37.0548 41.5874C37.5033 41.4467 37.8915 41.3663 38.2623 41.3462C39.168 41.306 40.0736 41.2959 40.9792 41.2959C45.102 41.2959 49.2161 41.2959 53.3389 41.316C54.8137 41.316 55.935 41.6175 56.8837 42.2708C57.5996 42.7633 58.1861 43.3462 58.6346 44.0095C60.5235 46.8136 62.4124 49.6176 64.3012 52.4217L65.5605 54.2911C71.2789 62.7836 76.9886 71.2661 82.6984 79.7587C82.9744 80.1708 83.2245 80.613 83.466 81.1155C83.6558 81.5075 83.7679 81.9698 83.8024 82.4422C83.8714 83.5577 83.2245 84.4723 82.1981 84.7135C81.7755 84.814 81.396 84.8643 81.0338 84.8743H80.5853C78.7826 84.9045 76.98 84.9246 75.1774 84.9346C73.2109 84.9346 71.253 84.9246 69.2865 84.9145C66.6731 84.9045 64.0597 84.8944 61.4464 84.8944H61.4291C59.6696 84.8944 57.9705 84.5125 56.2455 83.7386C55.1932 83.2663 54.1582 82.7537 53.1232 82.2512L48.1121 79.7989C48.2673 80.0401 48.4226 80.2713 48.5779 80.5125C48.8452 80.9446 49.0522 81.3969 49.173 81.8391C49.3541 82.4723 49.3024 83.1256 49.0264 83.6683C48.8107 84.0904 48.3622 84.6432 47.448 84.8442C47.0081 84.9447 46.551 84.9949 46.1025 84.9949C43.032 84.9949 39.9615 84.9949 36.891 84.9949H31.5176L31.5089 85.005ZM3.95202 44.3613C4.20215 44.7834 4.45228 45.1754 4.69378 45.5372C11.0504 54.9845 17.407 64.4218 23.7637 73.8591L27.5328 79.4572C27.6708 79.6682 27.8174 79.8793 27.9727 80.0803C28.1883 80.3617 28.4039 80.6431 28.6541 80.9145C29.3182 81.6381 30.2583 81.9899 31.5176 81.9899H36.891C39.9615 81.9899 43.032 81.9899 46.0938 81.9899C46.1542 81.9899 46.206 81.9899 46.2663 81.9899C46.0766 81.6984 45.8868 81.417 45.6885 81.1356L44.7828 79.7889C44.343 79.1356 43.9117 78.4924 43.4718 77.8391C43.2907 77.5778 42.9457 77.0853 42.9457 76.3215C42.9457 75.829 43.1527 75.3667 43.4977 75.0853C43.8427 74.8039 44.2912 74.7335 44.688 74.9144L44.8432 74.9848C44.9726 75.035 45.0761 75.0853 45.1796 75.1355L54.0979 79.5074C55.107 79.9999 56.1161 80.5024 57.1511 80.9647C58.5742 81.608 59.9629 81.9195 61.4032 81.9195C61.7224 81.9497 62.0242 81.9195 62.3347 81.9195C64.6462 81.9195 66.9664 81.9296 69.2779 81.9396C71.2358 81.9396 73.2023 81.9597 75.1601 81.9597C76.9541 81.9698 78.7395 81.9396 80.5335 81.9095H80.8009C80.7491 81.819 80.6974 81.7386 80.6456 81.6582C74.9359 73.1657 69.2261 64.6831 63.5077 56.1906L62.2485 54.3212C60.3596 51.5172 58.4707 48.7131 56.5819 45.9091C56.3317 45.5372 55.9867 45.1955 55.5469 44.904C55.0121 44.5422 54.3049 44.3714 53.313 44.3613C49.1902 44.3613 45.0761 44.3412 40.962 44.3412C40.1685 44.3412 39.375 44.3412 38.5901 44.3814C38.6505 44.4819 38.7108 44.5824 38.7712 44.6829C39.3922 45.6276 40.0305 46.5724 40.6687 47.5071L41.5657 48.8337C41.9538 49.4166 41.928 50.2408 41.4967 50.7835L40.548 49.7583L41.4708 50.8136C41.1172 51.2659 40.5307 51.4569 40.0391 51.2559L39.858 51.1855C39.7027 51.1252 39.5475 51.0548 39.3922 50.9845L31.6901 47.2156C31.3106 47.0246 30.9224 46.8337 30.5429 46.6427C29.7322 46.2307 28.8869 45.8086 28.0503 45.4467C26.2736 44.6628 24.3847 44.2608 22.4527 44.2608H22.4182C16.8119 44.2708 11.2057 44.2909 5.60803 44.3211C5.04741 44.3211 4.48678 44.3412 3.93478 44.3814L3.95202 44.3613Z" fill="#F3711B"/>
<path d="M48.5695 58.764C46.6547 58.764 45.0936 58.1308 43.9465 56.8846C43.6187 56.5328 43.3341 56.1609 43.0926 55.8393C42.9029 55.5881 42.7304 55.3368 42.5579 55.0755L38.7973 49.4875C32.4407 40.0502 26.0841 30.6028 19.7274 21.1656C19.3307 20.5726 18.9339 19.9294 18.5027 19.1756C18.2353 18.7133 18.1232 18.2409 18.0542 17.8791C17.8386 16.7735 18.3819 15.7685 19.3738 15.4167C19.6843 15.3062 20.1069 15.1755 20.5554 15.1353C21.2541 15.0851 21.9699 15.0549 22.6858 15.0549C28.2921 15.0348 33.8983 15.0147 39.5046 14.9946H39.5391C41.7902 14.9946 43.981 15.4569 46.0596 16.3715C46.9566 16.7635 47.8191 17.2057 48.6644 17.6278C49.0352 17.8188 49.4147 17.9997 49.7856 18.1906L53.6927 20.1002C53.4426 19.7083 53.2529 19.3163 53.0545 18.9344L53.0114 18.8439C52.8216 18.462 52.7526 18.0801 52.7181 17.7987C52.5715 16.673 53.1321 15.6982 54.124 15.3765C54.5725 15.2358 54.9606 15.1554 55.3315 15.1353C56.2371 15.0951 57.1428 15.0851 58.0484 15.0851C62.1711 15.0851 66.2853 15.0851 70.408 15.1052C71.8829 15.1052 73.0042 15.4067 73.9529 16.06C74.6688 16.5524 75.2553 17.1354 75.7038 17.7987C77.5927 20.6027 79.4815 23.4068 81.3704 26.2108L84.277 30.5224C89.4434 38.1909 94.6098 45.8694 99.7676 53.5378C100.044 53.9499 100.294 54.4021 100.535 54.8946C100.725 55.2866 100.837 55.7489 100.872 56.2212C100.941 57.3368 100.294 58.2514 99.2673 58.4926C98.8619 58.5931 98.4652 58.6434 98.1029 58.6534H97.6544C95.8518 58.6836 94.0492 58.7037 92.2379 58.7137C90.2714 58.7137 88.3135 58.7037 86.347 58.6936C83.7337 58.6836 81.1203 58.6735 78.5069 58.6735H78.4897C76.7302 58.6735 75.031 58.2916 73.306 57.5177C72.2365 57.0353 71.1843 56.5127 70.1234 56.0001L69.3816 55.6383C67.9758 54.9549 66.5785 54.2614 65.1726 53.578C65.3279 53.8192 65.4831 54.0504 65.6384 54.2916C65.9058 54.7237 66.1128 55.176 66.2335 55.6182C66.4146 56.2514 66.3629 56.9047 66.0869 57.4373C65.8713 57.8594 65.4228 58.4122 64.5085 58.6132C64.0686 58.7137 63.6201 58.764 63.1716 58.764C60.1011 58.764 57.0306 58.764 53.9601 58.764H48.5867H48.5695ZM21.0126 18.1203C21.2713 18.5424 21.5128 18.9344 21.7543 19.2962C28.111 28.7435 34.4676 38.1808 40.8242 47.6181L44.5934 53.2162C44.7314 53.4272 44.8694 53.6383 45.0246 53.8393C45.2402 54.1207 45.4645 54.4021 45.706 54.6735C46.3701 55.3971 47.3102 55.7489 48.5695 55.7489H53.9429C57.0134 55.7489 60.0839 55.7489 63.1458 55.7489C63.2061 55.7489 63.2579 55.7489 63.3183 55.7489C63.1285 55.4574 62.9388 55.176 62.749 54.8946L61.8606 53.588C61.4121 52.9247 60.9636 52.2614 60.5238 51.5981C60.3426 51.3368 59.9976 50.8443 59.9976 50.0805C59.9976 49.588 60.2046 49.1257 60.5496 48.8443C60.8946 48.5629 61.3431 48.4925 61.7399 48.6734L61.9124 48.7438C62.0331 48.794 62.1366 48.8342 62.2315 48.8845L64.7845 50.1408C66.6389 51.0553 68.5019 51.9599 70.3563 52.8745L71.1067 53.2463C72.133 53.7488 73.168 54.2614 74.2117 54.7338C75.6348 55.377 77.0234 55.6886 78.4638 55.6886C78.7915 55.6886 79.0848 55.6886 79.3953 55.6886C81.7068 55.6886 84.0269 55.6986 86.3384 55.7087C88.2963 55.7087 90.2628 55.7288 92.2207 55.7288C94.0233 55.7288 95.8087 55.7087 97.5941 55.6785H97.8614C97.8097 55.5881 97.7579 55.5077 97.7062 55.4273C92.5484 47.7588 87.382 40.0904 82.2157 32.4119L79.309 28.0903C77.4202 25.2862 75.5313 22.4822 73.6424 19.6781C73.3923 19.3062 73.0473 18.9645 72.6074 18.6731C72.0727 18.3113 71.3654 18.1404 70.3735 18.1303C66.2594 18.1303 62.1366 18.1102 58.0225 18.1102C57.229 18.1102 56.4355 18.1102 55.6506 18.1504C55.711 18.2509 55.7714 18.3615 55.8318 18.452C56.4528 19.3967 57.091 20.3314 57.7206 21.2661L58.6263 22.6028C59.023 23.1857 58.9885 24.0299 58.5486 24.5626L57.6085 23.5274L58.5314 24.5927C58.1778 25.045 57.5999 25.236 57.1083 25.0249L56.9271 24.9545C56.7719 24.8942 56.608 24.8239 56.4614 24.7535L48.7592 20.9846C48.3797 20.7937 48.0002 20.6027 47.6121 20.4118C46.8014 19.9997 45.9561 19.5776 45.1195 19.2158C43.3427 18.4319 41.4539 18.0298 39.5219 18.0298H39.4874C33.8811 18.0399 28.2748 18.06 22.6772 18.0901C22.1166 18.0901 21.556 18.1102 21.004 18.1504L21.0126 18.1203Z" fill="#F3711B"/>
<path d="M2.16691 44.5628C1.89091 44.5628 1.61491 44.4623 1.38204 44.2512C0.812788 43.7386 0.709284 42.7939 1.14916 42.1406L17.9334 16.7534C18.3733 16.0901 19.1841 15.9695 19.7447 16.482C20.3139 16.9946 20.4174 17.9393 19.9776 18.5926L3.19329 43.9698C2.93454 44.3517 2.55504 44.5527 2.16691 44.5527V44.5628Z" fill="#F3711B"/>
<path d="M82.6557 83.458C82.3797 83.458 82.1037 83.3575 81.8708 83.1464C81.3015 82.6338 81.1981 81.6891 81.6379 81.0358L98.4222 55.6587C98.8621 54.9953 99.6728 54.8747 100.233 55.3873C100.803 55.8999 100.906 56.8446 100.466 57.4979L83.6821 82.8751C83.4233 83.257 83.0438 83.458 82.6557 83.458Z" fill="#F3711B"/>
</g>
<defs>
<clipPath id="clip0_343_1055">
<rect width="100" height="100" fill="white" transform="translate(0.876709)"/>
</clipPath>
</defs>
</svg>
