<svg width="100" height="100" viewBox="0 0 100 100" fill="none" xmlns="http://www.w3.org/2000/svg">
<g clip-path="url(#clip0_318_2954)">
<rect width="100" height="100" rx="50" fill="#F3711B"/>
<path d="M81.8099 18.1818C73.3223 9.67769 62.0165 5 50 5C37.9835 5 26.6777 9.67769 18.1818 18.1818C9.67769 26.6777 5 37.9752 5 50C5 62.0248 9.67769 73.314 18.1818 81.8182C26.6777 90.314 37.9835 95 50 95C62.0165 95 73.3223 90.3223 81.8182 81.8182C90.314 73.3223 95 62.0165 95 50C95 37.9835 90.3223 26.6777 81.8182 18.1818H81.8099ZM93.2066 49.1157H93.0744C88.1157 49.1157 83.9917 45.4463 83.2149 40.5455C81.876 32.1736 78.7521 24.4793 74.0992 18.2727C73.9917 18.1322 73.876 17.9917 73.7686 17.8512C74.9174 17.3802 76.0496 16.8843 77.1405 16.3388C78.3306 17.2975 79.4793 18.3223 80.5703 19.4215C88.5289 27.3802 92.9835 37.8926 93.2066 49.1074V49.1157ZM72.0496 81.4628C69.8347 80.6446 67.5207 79.9504 65.124 79.3884C68.1405 71.4546 69.8264 61.4793 69.9174 50.876H70.9835C77.3636 50.876 82.1653 56.8099 80.7107 63.0248C79.0826 69.9669 76.1488 76.2975 72.0744 81.4628H72.0579H72.0496ZM27.9256 81.4628C23.843 76.2975 20.9091 69.9669 19.281 63.0248C17.8264 56.8099 22.6281 50.8843 29.0083 50.8843H30.0744C30.1653 61.4876 31.8512 71.4628 34.8678 79.3967C32.4628 79.9587 30.157 80.6529 27.9422 81.4711H27.9256V81.4628ZM27.9422 18.5289C30.157 19.3471 32.4711 20.0413 34.8678 20.6033C31.8512 28.5372 30.1653 38.5124 30.0744 49.1157H29.0083C22.6281 49.1157 17.8264 43.1818 19.281 36.9752C20.9091 30.0331 23.843 23.7025 27.9256 18.5372H27.9422V18.5289ZM31.843 50.9256C36.3554 51.1488 40.5702 52.9835 43.7934 56.2066C47.2231 59.6364 49.1157 64.2066 49.1157 69.0579V77.7107C44.8512 77.7603 40.6612 78.2149 36.6198 79.0331C33.6198 71.2727 31.9339 61.4215 31.843 50.9256ZM49.1157 20.5207C45.0744 20.4711 41.1074 20.0496 37.281 19.2893C37.2975 19.2479 37.3141 19.1901 37.3388 19.1488C40.5785 11.6612 44.7273 7.32231 49.124 6.80992V20.5207H49.1157ZM36.6198 20.9669C40.6612 21.7934 44.843 22.2397 49.1157 22.2893V30.9421C49.1157 35.8017 47.2231 40.3636 43.7934 43.7934C40.5702 47.0165 36.3554 48.8512 31.843 49.0744C31.9339 38.5785 33.6198 28.7273 36.6198 20.9669ZM49.1157 79.4711V93.1736C44.7273 92.6612 40.5702 88.3306 37.3306 80.8347C37.314 80.7851 37.2975 80.7355 37.2727 80.6942C41.0992 79.9339 45.0661 79.5207 49.1157 79.4711ZM50.876 79.4711C54.9174 79.5207 58.8843 79.9421 62.719 80.6942C62.7025 80.7438 62.6859 80.7934 62.6612 80.8347C59.4215 88.3223 55.2727 92.6612 50.876 93.1736V79.4711ZM63.3719 79.0331C59.3388 78.2149 55.1488 77.7603 50.876 77.7107V69.0579C50.876 64.1983 52.7686 59.6364 56.1983 56.2066C59.4215 52.9917 63.6364 51.1488 68.1488 50.9256C68.0579 61.4215 66.3719 71.2727 63.3719 79.0331ZM56.1983 43.7934C52.7686 40.3636 50.876 35.7934 50.876 30.9421V22.2893C55.1405 22.2397 59.3306 21.7851 63.3719 20.9669C66.3719 28.7273 68.0579 38.5785 68.1488 49.0744C63.6364 48.8512 59.4215 47.0165 56.1983 43.7934ZM50.876 20.5207V6.81818C55.2727 7.33058 59.4215 11.6694 62.6612 19.157C62.6777 19.1983 62.6942 19.2562 62.719 19.2975C58.8843 20.0579 54.9256 20.4711 50.8843 20.5289L50.876 20.5207ZM64.281 18.4545C62.2149 13.6694 59.7355 10.0744 57.0248 7.80992C62.1157 9.33058 66.843 12.4876 70.8678 17.0992C68.8264 17.8264 66.6942 18.4463 64.4793 18.9504C64.4132 18.7934 64.3554 18.6116 64.2893 18.4545H64.281ZM35.7107 18.4545C35.6446 18.6116 35.5868 18.7851 35.5207 18.9504C33.3141 18.4463 31.1818 17.8264 29.1322 17.0992C33.1488 12.4876 37.8843 9.33058 42.9669 7.80992C40.2479 10.0744 37.7769 13.6694 35.7107 18.4545ZM35.5207 81.0496C35.5868 81.2066 35.6446 81.3884 35.7107 81.5455C37.7769 86.3306 40.2479 89.9256 42.9669 92.1901C37.876 90.6777 33.1488 87.5124 29.124 82.9008C31.1736 82.1736 33.3058 81.5537 35.5124 81.0496H35.5207ZM64.281 81.5372C64.3471 81.3802 64.405 81.2066 64.4711 81.0413C66.6777 81.5455 68.8099 82.1653 70.8595 82.8926C66.843 87.5041 62.1074 90.6612 57.0165 92.1818C59.7355 89.9174 62.2066 86.3223 64.2727 81.5372H64.281ZM69.9174 49.1157C69.8264 38.5124 68.1405 28.5289 65.124 20.6033C67.5289 20.0413 69.8347 19.3471 72.0496 18.5289H72.0661C76.1488 23.7025 79.0826 30.0248 80.7107 36.9669C82.1653 43.1818 77.3636 49.1157 70.9835 49.1157H69.9174ZM75.5703 15.1322C74.6116 15.5868 73.6198 16.0165 72.6116 16.4132C70.124 13.4628 67.3554 11.0496 64.3967 9.21488C68.3802 10.6198 72.1405 12.6033 75.5703 15.1322ZM27.3884 16.4132C26.3802 16.0165 25.3884 15.5868 24.4298 15.1322C27.8595 12.6033 31.6198 10.6198 35.6033 9.21488C32.6446 11.0496 29.876 13.4711 27.3884 16.4132ZM19.4298 19.4298C20.5289 18.3306 21.6777 17.3058 22.8595 16.3471C23.9504 16.8843 25.0744 17.3884 26.2231 17.8595C26.1157 18 26 18.1322 25.8926 18.281C21.2397 24.4876 18.1157 32.1818 16.7769 40.5537C15.9917 45.4545 11.876 49.124 6.91736 49.124H6.78512C7.00826 37.9091 11.4711 27.3967 19.4298 19.438V19.4298ZM6.78512 50.876H6.91736C11.876 50.876 15.9917 54.5455 16.7769 59.4463C18.1157 67.8182 21.2314 75.5124 25.8926 81.719C26 81.8595 26.1157 82 26.2231 82.1405C25.0744 82.6116 23.9422 83.1074 22.8595 83.6529C21.6694 82.6942 20.5207 81.6694 19.4298 80.5703C11.4711 72.6116 7.01653 62.0992 6.78512 50.8843V50.876ZM24.4298 84.8595C25.3884 84.405 26.3802 83.9752 27.3884 83.5785C29.876 86.5289 32.6364 88.9422 35.6033 90.7769C31.6281 89.3719 27.8678 87.3884 24.4298 84.8595ZM72.6116 83.5785C73.6198 83.9752 74.6116 84.405 75.5703 84.8595C72.1405 87.3884 68.3802 89.3719 64.3967 90.7769C67.3554 88.9422 70.124 86.5207 72.6116 83.5785ZM80.5703 80.5703C79.4711 81.6694 78.3223 82.6942 77.1405 83.6529C76.0496 83.1157 74.9256 82.6116 73.7686 82.1405C73.876 82 73.9917 81.8678 74.0992 81.719C78.7521 75.5124 81.876 67.8182 83.2149 59.4463C84 54.5455 88.1157 50.876 93.0744 50.876H93.2066C92.9835 62.0909 88.5207 72.6033 80.5703 80.562V80.5703Z" fill="black"/>
</g>
<defs>
<clipPath id="clip0_318_2954">
<rect width="100" height="100" rx="50" fill="white"/>
</clipPath>
</defs>
</svg>
