<svg width="100" height="100" viewBox="0 0 100 100" fill="none" xmlns="http://www.w3.org/2000/svg">
<g clip-path="url(#clip0_318_2954)">
<rect width="100" height="100" rx="50" fill="#F3711B"/>
<path d="M81.103 18.8889C72.804 10.5737 61.7495 6 50 6C38.2505 6 27.196 10.5737 18.8889 18.8889C10.5737 27.196 6 38.2424 6 50C6 61.7576 10.5737 72.796 18.8889 81.1111C27.196 89.4182 38.2505 94 50 94C61.7495 94 72.804 89.4263 81.1111 81.1111C89.4182 72.804 94 61.7495 94 50C94 38.2505 89.4263 27.196 81.1111 18.8889H81.103ZM92.2465 49.1354H92.1172C87.2687 49.1354 83.2364 45.5475 82.4768 40.7556C81.1677 32.5697 78.1131 25.0465 73.5636 18.9778C73.4586 18.8404 73.3455 18.703 73.2404 18.5657C74.3636 18.1051 75.4707 17.6202 76.5374 17.0869C77.701 18.0242 78.8242 19.0263 79.8909 20.101C87.6727 27.8828 92.0283 38.1616 92.2465 49.1273V49.1354ZM71.5596 80.7636C69.3939 79.9636 67.1313 79.2848 64.7879 78.7354C67.7374 70.9778 69.3859 61.2242 69.4747 50.8566H70.5172C76.7556 50.8566 81.4505 56.6586 80.0283 62.7354C78.4364 69.5232 75.5677 75.7131 71.5838 80.7636H71.5677H71.5596ZM28.4162 80.7636C24.4242 75.7131 21.5556 69.5232 19.9636 62.7354C18.5414 56.6586 23.2364 50.8646 29.4747 50.8646H30.5172C30.6061 61.2323 32.2545 70.9859 35.204 78.7434C32.8525 79.2929 30.598 79.9717 28.4323 80.7717H28.4162V80.7636ZM28.4323 19.2283C30.598 20.0283 32.8606 20.7071 35.204 21.2566C32.2545 29.0141 30.6061 38.7677 30.5172 49.1354H29.4747C23.2364 49.1354 18.5414 43.3333 19.9636 37.2646C21.5556 30.4768 24.4242 24.2869 28.4162 19.2364H28.4323V19.2283ZM32.2465 50.905C36.6586 51.1232 40.7798 52.9172 43.9313 56.0687C47.2848 59.4222 49.1354 63.8909 49.1354 68.6343V77.095C44.9657 77.1434 40.8687 77.5879 36.9172 78.3879C33.9838 70.8 32.3354 61.1677 32.2465 50.905ZM49.1354 21.1758C45.1838 21.1273 41.3051 20.7152 37.5636 19.9717C37.5798 19.9313 37.596 19.8747 37.6202 19.8343C40.7879 12.5131 44.8444 8.27071 49.1434 7.7697V21.1758H49.1354ZM36.9172 21.6121C40.8687 22.4202 44.9576 22.8566 49.1354 22.9051V31.3657C49.1354 36.1172 47.2848 40.5778 43.9313 43.9313C40.7798 47.0828 36.6586 48.8768 32.2465 49.095C32.3354 38.8323 33.9838 29.2 36.9172 21.6121ZM49.1354 78.8162V92.2141C44.8444 91.7131 40.7798 87.4788 37.6121 80.1495C37.596 80.101 37.5798 80.0525 37.5556 80.0121C41.297 79.2687 45.1758 78.8646 49.1354 78.8162ZM50.8566 78.8162C54.8081 78.8646 58.6869 79.2768 62.4364 80.0121C62.4202 80.0606 62.404 80.1091 62.3798 80.1495C59.2121 87.4707 55.1556 91.7131 50.8566 92.2141V78.8162ZM63.0747 78.3879C59.1313 77.5879 55.0343 77.1434 50.8566 77.095V68.6343C50.8566 63.8828 52.7071 59.4222 56.0606 56.0687C59.2121 52.9253 63.3333 51.1232 67.7455 50.905C67.6566 61.1677 66.0081 70.8 63.0747 78.3879ZM56.0606 43.9313C52.7071 40.5778 50.8566 36.1091 50.8566 31.3657V22.9051C55.0263 22.8566 59.1232 22.4121 63.0747 21.6121C66.0081 29.2 67.6566 38.8323 67.7455 49.095C63.3333 48.8768 59.2121 47.0828 56.0606 43.9313ZM50.8566 21.1758V7.77778C55.1556 8.27879 59.2121 12.5212 62.3798 19.8424C62.396 19.8828 62.4121 19.9394 62.4364 19.9798C58.6869 20.7232 54.8162 21.1273 50.8646 21.1838L50.8566 21.1758ZM63.9636 19.1556C61.9434 14.4768 59.5192 10.9616 56.8687 8.74747C61.8465 10.2343 66.4687 13.3212 70.404 17.8303C68.4081 18.5414 66.3232 19.1475 64.1576 19.6404C64.0929 19.4869 64.0364 19.3091 63.9717 19.1556H63.9636ZM36.0283 19.1556C35.9636 19.3091 35.9071 19.4788 35.8424 19.6404C33.6848 19.1475 31.6 18.5414 29.596 17.8303C33.5232 13.3212 38.1535 10.2343 43.1232 8.74747C40.4646 10.9616 38.0485 14.4768 36.0283 19.1556ZM35.8424 80.3596C35.9071 80.5131 35.9636 80.6909 36.0283 80.8444C38.0485 85.5232 40.4646 89.0384 43.1232 91.2525C38.1455 89.7737 33.5232 86.6788 29.5879 82.1697C31.5919 81.4586 33.6768 80.8525 35.8343 80.3596H35.8424ZM63.9636 80.8364C64.0283 80.6828 64.0848 80.5131 64.1495 80.3515C66.3071 80.8444 68.3919 81.4505 70.396 82.1616C66.4687 86.6707 61.8384 89.7576 56.8606 91.2444C59.5192 89.0303 61.9354 85.5152 63.9556 80.8364H63.9636ZM69.4747 49.1354C69.3859 38.7677 67.7374 29.0061 64.7879 21.2566C67.1394 20.7071 69.3939 20.0283 71.5596 19.2283H71.5758C75.5677 24.2869 78.4364 30.4687 80.0283 37.2566C81.4505 43.3333 76.7556 49.1354 70.5172 49.1354H69.4747ZM75.002 15.9071C74.0646 16.3515 73.0949 16.7717 72.1091 17.1596C69.6768 14.2747 66.9697 11.9152 64.0768 10.1212C67.9717 11.4949 71.6485 13.4343 75.002 15.9071ZM27.8909 17.1596C26.9051 16.7717 25.9354 16.3515 24.998 15.9071C28.3515 13.4343 32.0283 11.4949 35.9232 10.1212C33.0303 11.9152 30.3232 14.2828 27.8909 17.1596ZM20.1091 20.1091C21.1838 19.0343 22.3071 18.0323 23.4626 17.0949C24.5293 17.6202 25.6283 18.1131 26.7515 18.5737C26.6465 18.7111 26.5333 18.8404 26.4283 18.9859C21.8788 25.0545 18.8242 32.5778 17.5152 40.7636C16.7475 45.5556 12.7232 49.1434 7.87475 49.1434H7.74545C7.96364 38.1778 12.3273 27.899 20.1091 20.1172V20.1091ZM7.74545 50.8566H7.87475C12.7232 50.8566 16.7475 54.4444 17.5152 59.2364C18.8242 67.4222 21.8707 74.9455 26.4283 81.0141C26.5333 81.1515 26.6465 81.2889 26.7515 81.4263C25.6283 81.8869 24.5212 82.3717 23.4626 82.905C22.299 81.9677 21.1758 80.9657 20.1091 79.8909C12.3273 72.1091 7.97172 61.8303 7.74545 50.8646V50.8566ZM24.998 84.0848C25.9354 83.6404 26.9051 83.2202 27.8909 82.8323C30.3232 85.7172 33.0222 88.0768 35.9232 89.8707C32.0364 88.497 28.3596 86.5576 24.998 84.0848ZM72.1091 82.8323C73.0949 83.2202 74.0646 83.6404 75.002 84.0848C71.6485 86.5576 67.9717 88.497 64.0768 89.8707C66.9697 88.0768 69.6768 85.7091 72.1091 82.8323ZM79.8909 79.8909C78.8162 80.9657 77.6929 81.9677 76.5374 82.905C75.4707 82.3798 74.3717 81.8869 73.2404 81.4263C73.3455 81.2889 73.4586 81.1596 73.5636 81.0141C78.1131 74.9455 81.1677 67.4222 82.4768 59.2364C83.2444 54.4444 87.2687 50.8566 92.1172 50.8566H92.2465C92.0283 61.8222 87.6646 72.101 79.8909 79.8828V79.8909Z" fill="black"/>
</g>
<defs>
<clipPath id="clip0_318_2954">
<rect width="100" height="100" rx="50" fill="white"/>
</clipPath>
</defs>
</svg>
