<svg width="101" height="100" viewBox="0 0 101 100" fill="none" xmlns="http://www.w3.org/2000/svg">
<g clip-path="url(#clip0_343_1067)">
<path d="M36.8118 88.1959H25.6238C24.7017 88.185 23.4973 88.1192 22.3117 87.6258C21.3613 87.231 20.5521 86.6389 19.9028 85.8495C18.8866 84.6324 18.0491 83.3386 17.2305 82.0886C16.92 81.6062 16.6 81.1237 16.2801 80.6523C14.5111 78.0427 12.7703 75.4331 11.0295 72.8126L9.27937 70.192C6.93638 66.6834 4.59339 63.1747 2.2504 59.655C1.68582 58.7998 1.30943 57.8459 1.14947 56.8152C0.951864 55.5543 1.20593 54.3153 1.87401 53.2298L2.41036 52.3416C3.41719 50.697 4.42402 49.0523 5.41203 47.3966C6.02365 46.3769 6.82346 45.0283 7.58564 43.6467C8.47955 42.024 9.93803 41.0152 11.9329 40.6424C12.9679 40.445 13.9936 40.4341 14.8687 40.4341H18.6513C22.434 40.4341 26.2166 40.4341 29.9993 40.4341H30.0369C32.7751 40.4341 35.3816 41.0152 37.7999 42.1446C38.9572 42.6928 40.0958 43.2849 41.1967 43.855L58.3692 52.6815C60.3547 53.7013 61.8978 54.8197 63.0834 56.1025C63.5445 56.6069 63.9773 57.1551 64.3725 57.7362C66.4991 60.8831 68.6163 64.0299 70.7334 67.1768L72.7189 70.1262L74.629 72.9661C76.7556 76.1239 78.8821 79.2817 81.0087 82.4505C81.2439 82.8013 81.451 83.1741 81.6674 83.536L81.8462 83.843C81.9967 84.1061 82.072 84.3693 82.1096 84.5009C82.3825 85.4657 82.1943 86.1675 81.9873 86.5841C81.658 87.242 81.0746 87.6806 80.2465 87.8779C79.7666 87.9876 79.2491 88.0534 78.741 88.0643C76.4356 88.0972 74.1303 88.1301 71.8155 88.1411C69.896 88.1521 67.9764 88.163 66.0474 88.163H63.3939C62.5 88.185 61.4556 88.1521 60.4111 87.7902C59.3572 87.4284 58.4727 86.8363 57.7952 86.014C57.4095 85.5425 57.0331 85.06 56.7037 84.5666C55.8945 83.3934 55.0947 82.2092 54.3231 81.0251C50.898 81.0251 47.5294 81.0251 44.1513 81.0251H42.1095C42.7023 81.9022 43.2856 82.7904 43.869 83.6785C44.1043 84.0403 44.2737 84.4899 44.3677 84.9943C44.5748 86.1126 44.1513 87.4284 42.7399 87.8889C42.2694 88.0424 41.7707 88.1301 41.3002 88.1411C39.7947 88.174 38.2986 88.174 36.8024 88.174L36.8118 88.1959ZM14.8216 43.7235C14.0689 43.7235 13.2126 43.7344 12.4128 43.8879C10.8414 44.184 10.2768 44.9076 9.98509 45.423C9.19468 46.8593 8.37604 48.2409 7.7456 49.2825C6.74818 50.9382 5.73194 52.5938 4.72511 54.2495L4.18878 55.1267C3.89708 55.6091 3.90648 55.96 3.94412 56.2231C4.01939 56.7275 4.20759 57.188 4.48987 57.6266C6.82345 61.1353 9.16645 64.6439 11.5094 68.1526L13.2596 70.7732C15.0004 73.3827 16.7412 75.9923 18.5008 78.5909C18.8395 79.0843 19.1594 79.5887 19.4888 80.0821C20.2886 81.3101 21.0414 82.4614 21.9353 83.5469C22.274 83.9636 22.7257 84.2816 23.262 84.5009C23.8736 84.753 24.5982 84.8627 25.6332 84.8627H36.8212C38.2421 84.8627 39.6724 84.8627 41.0932 84.8408C40.5569 84.0074 40.0017 83.1961 39.4559 82.3737L39.0513 81.7707C38.9949 81.6939 38.9384 81.6172 38.882 81.5404C38.7502 81.354 38.6185 81.1786 38.5056 80.9812C37.9504 80.0602 38.1386 79.2817 38.2891 78.8979C38.5808 78.1962 39.1548 77.8015 40.0017 77.7357C40.2275 77.7138 40.4628 77.7138 40.698 77.7138H44.1607C47.6046 77.7247 51.058 77.7357 54.5019 77.7138C54.8218 77.7357 55.7345 77.7138 56.4026 78.7335C57.2212 79.9944 58.0775 81.2444 58.9244 82.4943C59.2067 82.9 59.5078 83.3057 59.8371 83.7004C60.1759 84.1061 60.6369 84.4131 61.2203 84.6105C61.8414 84.8188 62.5377 84.8407 63.4034 84.8627H66.0663C67.9858 84.8517 69.9054 84.8407 71.8249 84.8298C74.1209 84.8188 76.4262 84.7859 78.7222 84.753C78.8163 84.753 78.9104 84.753 79.0045 84.7421C78.948 84.6434 78.8821 84.5447 78.8163 84.446C76.6991 81.2882 74.5725 78.1304 72.446 74.9726L70.5358 72.1328L68.7856 69.5342C66.5932 66.2667 64.3914 63.0102 62.1895 59.7537C61.8884 59.3042 61.5497 58.8766 61.1921 58.4928C60.2417 57.4621 58.962 56.5411 57.2683 55.6749L40.077 46.8374C39.0043 46.2782 37.8845 45.6971 36.7742 45.1708C34.6947 44.1949 32.4364 43.7015 30.0652 43.7015H30.0275C26.2449 43.7015 22.4622 43.7015 18.6701 43.7015H14.8875C14.8875 43.7015 14.8404 43.7015 14.8216 43.7015V43.7235Z" fill="#4737FF"/>
<path d="M55.4337 59.5674H44.2456C43.3235 59.5564 42.1191 59.4906 40.9335 58.9972C39.9831 58.6025 39.1739 58.0104 38.5246 57.2209C37.5084 55.9929 36.6709 54.6991 35.8523 53.4491C35.5418 52.9667 35.2219 52.4842 34.9019 52.0127C33.1329 49.4032 31.3827 46.7717 29.6325 44.1511L27.9012 41.5525C25.5582 38.0438 23.2152 34.5352 20.8722 31.0155C20.3076 30.1603 19.9313 29.2064 19.7713 28.1757C19.5737 26.9147 19.8278 25.6757 20.4958 24.5903L21.0039 23.7569C22.0202 22.0903 23.0364 20.4347 24.0432 18.768C24.6549 17.7483 25.4547 16.3997 26.2169 15.0181C27.1108 13.3954 28.5693 12.3866 30.5641 12.0138C31.5992 11.8165 32.6248 11.7946 33.4999 11.8055H37.132C40.9617 11.8055 44.8008 11.8055 48.6305 11.8055H48.6682C51.4063 11.8055 54.0128 12.3866 56.4311 13.516C57.5885 14.0642 58.727 14.6563 59.8279 15.2265L77.0005 24.053C78.9859 25.0727 80.5291 26.1911 81.7147 27.4739C82.1757 27.9783 82.6086 28.5265 83.0038 29.1077C85.1962 32.3532 87.3792 35.5987 89.5717 38.8442L91.3501 41.4867L92.9497 43.866C95.1798 47.1773 97.4099 50.4887 99.6399 53.8109C99.8752 54.1618 100.082 54.5346 100.299 54.8964L100.477 55.2034C100.628 55.4666 100.703 55.7297 100.741 55.8613C101.014 56.8152 100.826 57.5279 100.619 57.9446C100.289 58.6025 99.7058 59.041 98.8778 59.2384C98.3885 59.359 97.8803 59.4138 97.3722 59.4248C95.0669 59.4577 92.7615 59.4906 90.4468 59.5016C88.5272 59.5125 86.6077 59.5235 84.6787 59.5235H82.0252C81.1407 59.5235 80.0868 59.5125 79.0423 59.1507C77.9885 58.7889 77.104 58.1968 76.4265 57.3744C76.0407 56.903 75.6643 56.4205 75.335 55.9271C74.5257 54.7539 73.7259 53.5697 72.9543 52.3855C69.5292 52.3855 66.1606 52.3855 62.7826 52.3855H60.7407C61.3335 53.2627 61.9169 54.1508 62.5003 55.039C62.7355 55.4008 62.9049 55.8503 62.999 56.3547C63.206 57.4621 62.7826 58.7889 61.3711 59.2494C60.9006 59.4029 60.4019 59.4906 59.9314 59.5016C58.4259 59.5345 56.9298 59.5345 55.4337 59.5345V59.5674ZM33.434 15.0949C32.6813 15.0949 31.825 15.1059 31.0252 15.2594C29.4538 15.5554 28.8892 16.2791 28.5975 16.7944C27.8071 18.2308 26.9885 19.6123 26.358 20.654C25.3512 22.3315 24.3255 23.9982 23.3093 25.6757L22.8012 26.5091C22.5095 26.9915 22.5189 27.3424 22.5565 27.6055C22.6318 28.1099 22.82 28.5704 23.1023 29.009C25.4359 32.5177 27.7789 36.0263 30.1218 39.535L31.8532 42.1336C33.594 44.7542 35.3442 47.3747 37.1132 49.9733C37.4425 50.4667 37.7719 50.9601 38.0918 51.4645C38.8916 52.6925 39.6444 53.8548 40.5477 54.9403C40.8864 55.3569 41.3381 55.6749 41.865 55.8942C42.4766 56.1464 43.2012 56.256 44.2268 56.256H55.4148C56.8357 56.267 58.2659 56.256 59.6868 56.2341C59.1505 55.4008 58.5953 54.5894 58.0495 53.7671L57.6449 53.164C57.5885 53.0873 57.532 53.0105 57.4755 52.9338C57.3438 52.7474 57.2121 52.5719 57.0992 52.3746C56.544 51.4535 56.7322 50.6751 56.8827 50.2913C57.1744 49.5896 57.7484 49.1948 58.5953 49.129C58.8211 49.1071 59.0564 49.1071 59.2916 49.1071H62.7543C66.1982 49.1181 69.6516 49.129 73.0955 49.1071C73.4154 49.1181 74.3281 49.1071 74.9962 50.1268C75.8148 51.3878 76.6711 52.6377 77.518 53.8877C77.8003 54.2934 78.1014 54.6991 78.4307 55.0938C78.7695 55.4995 79.2305 55.8065 79.8139 56.0039C80.435 56.2122 81.1313 56.256 81.997 56.256H84.6599C86.5794 56.2451 88.499 56.2341 90.4185 56.2231C92.7145 56.2122 95.0198 56.1793 97.3158 56.1464C97.4099 56.1464 97.504 56.1464 97.5981 56.1354C97.5416 56.0367 97.4757 55.9381 97.4099 55.8394C95.1892 52.5281 92.9591 49.2168 90.7291 45.9055L89.1294 43.5261L87.6051 41.2674C85.3374 37.8903 83.0602 34.5132 80.7831 31.1471C80.482 30.6975 80.1433 30.2699 79.7857 29.8862C78.8353 28.8555 77.5556 27.9345 75.8619 27.0683L58.6706 18.2308C57.5979 17.6716 56.4781 17.0905 55.3678 16.5642C53.2883 15.5883 51.03 15.0949 48.6587 15.0949H48.6211C44.7914 15.0949 40.9523 15.0949 37.1132 15.0949H33.4811C33.4811 15.0949 33.434 15.0949 33.4152 15.0949H33.434Z" fill="#4737FF"/>
<path d="M2.28803 57.5718C1.99634 57.5718 1.70464 57.4622 1.45058 57.2539C0.820136 56.7166 0.688405 55.6859 1.15888 54.9513L20.1569 25.0618C20.6179 24.3271 21.5024 24.1736 22.1329 24.7219C22.7633 25.2701 22.895 26.2898 22.4246 27.0244L3.4266 56.914C3.15372 57.3525 2.72087 57.5828 2.28803 57.5828V57.5718Z" fill="#4737FF"/>
<path d="M81.0184 87.0662C80.7173 87.0662 80.4162 86.9566 80.1621 86.7263C79.5411 86.1671 79.4282 85.1364 79.9081 84.4237L98.2191 56.7381C98.699 56.0144 99.5835 55.8829 100.195 56.4421C100.816 57.0013 100.929 58.0319 100.449 58.7446L82.1381 86.4303C81.8559 86.8469 81.4418 87.0662 81.0184 87.0662Z" fill="#4737FF"/>
</g>
<defs>
<clipPath id="clip0_343_1067">
<rect width="100" height="100" fill="white" transform="translate(0.876709)"/>
</clipPath>
</defs>
</svg>
