<svg width="100" height="100" viewBox="0 0 100 100" fill="none" xmlns="http://www.w3.org/2000/svg">
<g clip-path="url(#clip0_318_2971)">
<g clip-path="url(#clip1_318_2971)">
<path d="M74.008 0.179688C87.339 0.179688 98.146 10.9866 98.146 24.3176V76.0418C98.146 89.3728 87.339 100.18 74.008 100.18C62.4801 100.18 52.8418 96.6957 50.4448 85.8893C48.0478 96.6957 38.4095 100.18 26.8816 100.18C13.5506 100.18 2.74365 89.3728 2.74365 76.0418V24.3176C2.74365 10.9866 13.5506 0.179688 26.8816 0.179688C38.4091 0.179688 48.0474 2.51363 50.4448 13.3195C52.8422 2.51363 62.4805 0.179688 74.008 0.179688Z" fill="white"/>
<path d="M28.0308 19.7202C32.4744 19.7202 36.0766 23.3225 36.0767 27.7661V73.7437C36.0764 78.1871 32.4743 81.7896 28.0308 81.7896C23.5873 81.7895 19.9851 78.1871 19.9849 73.7437V49.6528L28.0308 45.0073L19.9849 40.3618V27.7661C19.9849 23.3225 23.5872 19.7203 28.0308 19.7202Z" fill="black"/>
<path d="M72.8584 19.7202C77.302 19.7202 80.9043 23.3225 80.9043 27.7661V73.7437C80.9041 78.1871 77.3019 81.7896 72.8584 81.7896C68.4149 81.7895 64.8127 78.1871 64.8125 73.7437V49.6528L72.8584 45.0073L64.8125 40.3618V27.7661C64.8125 23.3225 68.4148 19.7203 72.8584 19.7202Z" fill="black"/>
<rect x="9.64013" y="7.07665" width="36.7816" height="86.2069" rx="18.3908" stroke="black" stroke-width="2.29885"/>
<rect x="54.4678" y="7.07665" width="36.7816" height="86.2069" rx="18.3908" stroke="black" stroke-width="2.29885"/>
</g>
</g>
<defs>
<clipPath id="clip0_318_2971">
<rect width="100" height="100" fill="white"/>
</clipPath>
<clipPath id="clip1_318_2971">
<rect width="95.4023" height="100" fill="white" transform="translate(2.74365 0.179688)"/>
</clipPath>
</defs>
</svg>
