<svg width="101" height="100" viewBox="0 0 101 100" fill="none" xmlns="http://www.w3.org/2000/svg">
<g clip-path="url(#clip0_343_1038)">
<path d="M69.4212 87.0839H41.8382C39.2996 87.0839 36.7611 87.0839 34.2225 87.0732C33.6686 87.0732 33.087 87.0194 32.4316 86.9226C31.13 86.7182 30.0407 86.1266 29.2007 85.1692C28.8407 84.7605 28.5453 84.3732 28.2868 83.9967C24.6497 78.5968 21.0126 73.2077 17.3847 67.8078L13.0276 61.343C9.41814 55.9754 5.7995 50.6077 2.19931 45.2401C1.87622 44.7668 1.62698 44.2074 1.44235 43.5943C1.23927 42.8951 1.29465 42.1959 1.59005 41.6258C1.93161 40.9697 2.52241 40.5609 3.35322 40.4103C3.7317 40.335 4.11018 40.3027 4.4702 40.3027C7.85806 40.3027 11.2367 40.3027 14.6246 40.3027H34.9148C36.8257 40.3027 38.7365 40.3027 40.6474 40.3242C42.6229 40.335 44.543 40.7545 46.3615 41.5613C47.8385 42.2174 49.2878 42.9059 50.7371 43.6051L57.679 46.9181C60.2084 48.1229 62.7285 49.3277 65.2579 50.5324C67.0672 51.393 68.3411 52.1997 69.4119 53.1463C70.1597 53.8132 70.7505 54.4802 71.2212 55.1793C74.6091 60.2243 78.0062 65.2692 81.4033 70.3034C81.8833 71.0133 82.2156 71.7017 82.4095 72.4009C82.8341 73.8746 82.5664 75.2945 81.6525 76.5208L80.6833 77.8116C78.9386 80.1351 77.1939 82.4478 75.4676 84.782C74.6737 85.8577 73.6029 86.5353 72.209 86.858C71.2489 87.0839 70.3166 87.0947 69.4212 87.0947V87.0839ZM43.5275 83.8569H69.2088C70.0858 83.8569 70.9074 83.8569 71.6828 83.6848C72.4675 83.5019 73.0029 83.1792 73.3814 82.6737C75.1076 80.3394 76.8615 78.016 78.6062 75.6925L79.5755 74.4017C79.9078 73.9607 79.8709 73.6917 79.7971 73.4336C79.6955 73.0894 79.5109 72.7129 79.234 72.3041C75.8369 67.2592 72.4398 62.225 69.0519 57.1801C68.7288 56.6961 68.2949 56.2228 67.7411 55.7279C66.8733 54.9642 65.7933 54.2865 64.224 53.5336C61.6946 52.3288 59.1653 51.124 56.6451 49.9193L49.7032 46.6062C48.2724 45.9178 46.8508 45.2401 45.3923 44.5947C43.8876 43.9278 42.2906 43.5835 40.6474 43.5728C38.7365 43.5728 36.8349 43.562 34.924 43.562H14.6246C11.2736 43.562 7.91345 43.562 4.56251 43.562C8.1073 48.8436 11.6521 54.1144 15.2061 59.3852L17.5324 62.8382L19.5633 65.8501C23.2004 71.25 26.8282 76.6391 30.4653 82.039C30.6407 82.2972 30.8623 82.5768 31.1392 82.8995C31.5454 83.3621 32.1085 83.6525 32.8008 83.7601C33.3363 83.8461 33.7978 83.8784 34.2317 83.8892C36.7703 83.8999 39.2996 83.8892 41.8382 83.8892H43.5275V83.8569Z" fill="#F4ABC9"/>
<path d="M88.0593 59.6865H60.5594C58.0208 59.6865 55.4822 59.6865 52.9437 59.6757C52.3898 59.6757 51.8082 59.6219 51.1528 59.5251C49.8512 59.3207 48.7619 58.7291 47.9219 57.7718C47.5618 57.363 47.2664 56.9758 47.008 56.5993C43.3709 51.1994 39.7338 45.8102 36.1059 40.4103L31.6749 33.8379C28.0839 28.5026 24.493 23.178 20.9205 17.8426C20.5974 17.3586 20.3482 16.81 20.1635 16.1968C19.9605 15.4977 20.0158 14.7985 20.3112 14.2284C20.6528 13.5722 21.2436 13.1634 22.0744 13.0128C22.4529 12.9375 22.8314 12.9053 23.1914 12.9053C26.5793 12.9053 29.9579 12.9053 33.3457 12.9053H53.636C55.5469 12.9053 57.4577 12.9053 59.3686 12.9268C61.3441 12.9375 63.2642 13.3571 65.0827 14.1638C66.5597 14.82 68.009 15.5084 69.4583 16.2076L76.4002 19.5207C78.9296 20.7254 81.4497 21.9302 83.9791 23.135C85.7884 23.9955 87.0623 24.8023 88.1331 25.7489C88.8808 26.4158 89.4716 27.0827 89.9424 27.7819C93.3303 32.8268 96.7274 37.8717 100.124 42.9059C100.605 43.6159 100.937 44.3043 101.131 45.0035C101.546 46.4556 101.278 47.9186 100.374 49.1233L99.4044 50.4141C97.6597 52.7376 95.915 55.0503 94.1888 57.3845C93.3949 58.4602 92.3241 59.1379 90.9302 59.4606C89.9424 59.6865 88.9824 59.6972 88.05 59.6972L88.0593 59.6865ZM62.258 56.4487H87.9485C88.8162 56.4487 89.6378 56.4487 90.404 56.2766C91.1887 56.0937 91.7241 55.771 92.1025 55.2654C93.8288 52.9312 95.5827 50.6078 97.3274 48.2843L98.2967 46.9935C98.629 46.5525 98.5921 46.2835 98.5182 46.0254C98.4167 45.6704 98.2321 45.3047 97.9551 44.8959C94.5581 39.851 91.161 34.8168 87.7731 29.7719C87.45 29.2878 87.0161 28.8145 86.4623 28.3197C85.5945 27.556 84.5145 26.8783 82.9452 26.1253C80.4158 24.9206 77.8864 23.7158 75.3663 22.5111L68.4244 19.198C66.9936 18.5096 65.572 17.8319 64.1134 17.1865C62.6088 16.5195 61.0118 16.1753 59.3686 16.1646C57.4577 16.1646 55.5561 16.1538 53.6452 16.1538H33.355C30.004 16.1538 26.6531 16.1538 23.2929 16.1538C26.81 21.3924 30.3364 26.6309 33.8627 31.8695L36.2628 35.43L38.2937 38.4418C41.9308 43.8417 45.5587 49.2309 49.1958 54.6308C49.3712 54.889 49.5927 55.1686 49.8697 55.4913C50.2758 55.9539 50.8389 56.2443 51.5313 56.3519C52.0667 56.4379 52.5282 56.4702 52.9621 56.481C55.5007 56.4917 58.0393 56.481 60.5687 56.481H62.258V56.4487Z" fill="#F4ABC9"/>
<path d="M2.75314 44.6804C2.45774 44.6804 2.15311 44.5728 1.90387 44.3362C1.30384 43.7876 1.19306 42.7764 1.66386 42.0773L20.4033 14.0021C20.8741 13.3029 21.7418 13.1738 22.3418 13.7224C22.9419 14.271 23.0526 15.2821 22.5818 15.9813L3.85166 44.0673C3.57472 44.476 3.16855 44.6912 2.75314 44.6912V44.6804Z" fill="#F4ABC9"/>
<path d="M81.1908 76.445C80.8954 76.445 80.5907 76.3374 80.3322 76.1008C79.7322 75.5522 79.6307 74.5303 80.1015 73.8311L97.7239 47.7459C98.1947 47.0467 99.0717 46.9284 99.6717 47.477C100.272 48.0256 100.373 49.0475 99.9025 49.7467L82.28 75.8319C82.0031 76.2406 81.5969 76.445 81.1908 76.445Z" fill="#F4ABC9"/>
</g>
<defs>
<clipPath id="clip0_343_1038">
<rect width="100" height="100" fill="white" transform="translate(0.876709)"/>
</clipPath>
</defs>
</svg>
