<svg width="101" height="100" viewBox="0 0 101 100" fill="none" xmlns="http://www.w3.org/2000/svg">
<g clip-path="url(#clip0_318_3003)">
<g clip-path="url(#clip1_318_3003)">
<path d="M89.6649 81.7268L73.1939 65.2558C69.4135 61.4754 72.094 55.0146 77.4365 55.0146H100.877V45.0136H77.4365C72.094 45.0136 69.4135 38.5528 73.1939 34.7724L89.7666 18.1997L82.6957 11.1196L61.557 32.2583C55.66 38.1553 46.1027 38.1553 40.2057 32.2583L19.0392 11.1011L11.9683 18.172L28.5687 34.7724C32.3491 38.5528 29.6686 45.0136 24.3262 45.0136H0.876709V55.0146H24.317C29.6594 55.0146 32.3399 61.4754 28.5595 65.2558L11.9776 81.8377L19.0484 88.9086L40.1872 67.7699C46.0842 61.8729 55.6415 61.8729 61.5385 67.7699L82.5756 88.807L89.6465 81.7361L89.6649 81.7268Z" fill="#4737FF"/>
</g>
</g>
<defs>
<clipPath id="clip0_318_3003">
<rect width="100" height="100" fill="white" transform="translate(0.876709)"/>
</clipPath>
<clipPath id="clip1_318_3003">
<rect width="100" height="77.7983" fill="white" transform="translate(0.876709 11.1011)"/>
</clipPath>
</defs>
</svg>
