<svg width="100" height="100" viewBox="0 0 100 100" fill="none" xmlns="http://www.w3.org/2000/svg">
<g clip-path="url(#clip0_318_3003)">
<path d="M88.7882 81.7268L72.3172 65.2558C68.5368 61.4754 71.2173 55.0146 76.5598 55.0146H100V45.0136H76.5598C71.2173 45.0136 68.5368 38.5528 72.3172 34.7724L88.8899 18.1997L81.819 11.1196L60.6803 32.2583C54.7833 38.1553 45.226 38.1553 39.329 32.2583L18.1625 11.1011L11.0916 18.172L27.692 34.7724C31.4724 38.5528 28.7919 45.0136 23.4495 45.0136H0V55.0146H23.4402C28.7827 55.0146 31.4632 61.4754 27.6828 65.2558L11.1008 81.8377L18.1717 88.9086L39.3105 67.7699C45.2075 61.8729 54.7648 61.8729 60.6618 67.7699L81.6989 88.807L88.7698 81.7361L88.7882 81.7268Z" fill="#4737FF"/>
</g>
<defs>
<clipPath id="clip0_318_3003">
<rect width="100" height="77.7983" fill="white" transform="translate(0 11.1011)"/>
</clipPath>
</defs>
</svg>
