<svg width="100" height="100" viewBox="0 0 100 100" fill="none" xmlns="http://www.w3.org/2000/svg">
<g clip-path="url(#clip0_318_3026)">
<path d="M7.85458 41.8631L91.4511 38.7879L93.9579 38.6956L94.0416 41.2037L94.2827 48.4275L94.3669 50.9678L91.8256 51.0108L90.8362 51.0272L90.8064 52.0594L90.7386 54.3341L88.4686 54.4803L87.4847 54.5438L87.4892 55.406L87.4999 57.7851L85.1252 57.9138L84.3538 57.9557L84.3704 58.9229L84.4125 61.3855L81.9504 61.4639L58.2517 62.22L55.7807 62.2988L55.674 59.8292L55.6334 58.8968L54.356 58.7214L52.2073 58.4257L52.1971 56.2557L52.1931 55.5167L50.938 55.5113L48.5349 55.5001L48.4504 53.0983L48.4203 52.2652L47.8861 52.2941L47.8905 53.1331L47.901 55.3757L45.6726 55.6281L44.6099 55.748L44.6144 56.7235L44.6248 59.1016L42.2501 59.2304L41.5713 59.2667L41.6088 59.9461L41.7463 62.4742L39.2167 62.5798L15.2433 63.5784L12.6827 63.6852L12.6391 61.1228L12.623 60.1646L11.4655 60.1462L9.11045 60.107L9.00881 57.7543L8.97667 57.0269L8.00686 56.9844L5.65663 56.8802L5.61683 54.5281L5.44744 44.4027L5.40576 41.9531L7.85458 41.8631Z" fill="black" stroke="white" stroke-width="5"/>
<rect x="58.1182" y="46.3438" width="3.27485" height="3.27485" transform="rotate(-3.96615 58.1182 46.3438)" fill="white"/>
<rect x="61.5259" y="49.6479" width="3.27485" height="3.27485" transform="rotate(-3.96615 61.5259 49.6479)" fill="white"/>
<rect x="64.96" y="46.0156" width="3.27485" height="3.27485" transform="rotate(-3.96615 64.96 46.0156)" fill="white"/>
<rect x="65.3896" y="52.6812" width="3.27485" height="3.27485" transform="rotate(-3.96615 65.3896 52.6812)" fill="white"/>
<rect x="68.5073" y="49.1338" width="3.27485" height="3.27485" transform="rotate(-3.96615 68.5073 49.1338)" fill="white"/>
<rect x="72.0552" y="52.2515" width="3.27485" height="3.27485" transform="rotate(-3.96615 72.0552 52.2515)" fill="white"/>
<rect x="14.5933" y="47.686" width="3.27485" height="3.27485" transform="rotate(-3.96615 14.5933 47.686)" fill="white"/>
<rect x="18.0005" y="50.9902" width="3.27485" height="3.27485" transform="rotate(-3.96615 18.0005 50.9902)" fill="white"/>
<rect x="21.4346" y="47.3579" width="3.27485" height="3.27485" transform="rotate(-3.96615 21.4346 47.3579)" fill="white"/>
<rect x="21.8647" y="54.0234" width="3.27485" height="3.27485" transform="rotate(-3.96615 21.8647 54.0234)" fill="white"/>
<rect x="24.9824" y="50.4756" width="3.27485" height="3.27485" transform="rotate(-3.96615 24.9824 50.4756)" fill="white"/>
<rect x="28.5298" y="53.5933" width="3.27485" height="3.27485" transform="rotate(-3.96615 28.5298 53.5933)" fill="white"/>
</g>
<defs>
<clipPath id="clip0_318_3026">
<rect width="100" height="100" fill="white"/>
</clipPath>
</defs>
</svg>
