<svg width="100" height="100" viewBox="0 0 100 100" fill="none" xmlns="http://www.w3.org/2000/svg">
<g clip-path="url(#clip0_343_1038)">
<path d="M68.5444 87.0839H40.9615C38.4229 87.0839 35.8843 87.0839 33.3458 87.0732C32.7919 87.0732 32.2103 87.0194 31.5549 86.9226C30.2533 86.7182 29.164 86.1266 28.324 85.1692C27.9639 84.7605 27.6685 84.3732 27.4101 83.9967C23.773 78.5968 20.1359 73.2077 16.508 67.8078L12.1508 61.343C8.54143 55.9754 4.92279 50.6077 1.32261 45.2401C0.999512 44.7668 0.750269 44.2074 0.565644 43.5943C0.362557 42.8951 0.417944 42.1959 0.713344 41.6258C1.0549 40.9697 1.6457 40.5609 2.47651 40.4103C2.85499 40.335 3.23347 40.3027 3.59349 40.3027C6.98135 40.3027 10.36 40.3027 13.7478 40.3027H34.0381C35.949 40.3027 37.8598 40.3027 39.7707 40.3242C41.7462 40.335 43.6663 40.7545 45.4848 41.5613C46.9618 42.2174 48.4111 42.9059 49.8604 43.6051L56.8023 46.9181C59.3317 48.1229 61.8518 49.3277 64.3812 50.5324C66.1905 51.393 67.4644 52.1997 68.5352 53.1463C69.2829 53.8132 69.8737 54.4802 70.3445 55.1793C73.7324 60.2243 77.1295 65.2692 80.5266 70.3034C81.0066 71.0133 81.3389 71.7017 81.5328 72.4009C81.9574 73.8746 81.6897 75.2945 80.7758 76.5208L79.8066 77.8116C78.0618 80.1351 76.3171 82.4478 74.5909 84.782C73.797 85.8577 72.7262 86.5353 71.3323 86.858C70.3722 87.0839 69.4399 87.0947 68.5444 87.0947V87.0839ZM42.6508 83.8569H68.3321C69.2091 83.8569 70.0307 83.8569 70.8061 83.6848C71.5908 83.5019 72.1262 83.1792 72.5046 82.6737C74.2309 80.3394 75.9848 78.016 77.7295 75.6925L78.6988 74.4017C79.0311 73.9607 78.9942 73.6917 78.9204 73.4336C78.8188 73.0894 78.6342 72.7129 78.3572 72.3041C74.9602 67.2592 71.5631 62.225 68.1752 57.1801C67.8521 56.6961 67.4182 56.2228 66.8644 55.7279C65.9966 54.9642 64.9166 54.2865 63.3473 53.5336C60.8179 52.3288 58.2885 51.124 55.7684 49.9193L48.8265 46.6062C47.3957 45.9178 45.9741 45.2401 44.5155 44.5947C43.0109 43.9278 41.4138 43.5835 39.7707 43.5728C37.8598 43.5728 35.9582 43.562 34.0473 43.562H13.7478C10.3969 43.562 7.03674 43.562 3.6858 43.562C7.23059 48.8436 10.7754 54.1144 14.3294 59.3852L16.6557 62.8382L18.6866 65.8501C22.3237 71.25 25.9515 76.6391 29.5886 82.039C29.764 82.2972 29.9856 82.5768 30.2625 82.8995C30.6687 83.3621 31.2318 83.6525 31.9241 83.7601C32.4596 83.8461 32.9211 83.8784 33.355 83.8892C35.8936 83.8999 38.4229 83.8892 40.9615 83.8892H42.6508V83.8569Z" fill="#F4ABC9"/>
<path d="M87.1826 59.6865H59.6827C57.1441 59.6865 54.6055 59.6865 52.0669 59.6757C51.5131 59.6757 50.9315 59.6219 50.2761 59.5251C48.9745 59.3207 47.8852 58.7291 47.0452 57.7718C46.6851 57.363 46.3897 56.9758 46.1313 56.5993C42.4942 51.1994 38.8571 45.8102 35.2292 40.4103L30.7982 33.8379C27.2072 28.5026 23.6163 23.178 20.0438 17.8426C19.7207 17.3586 19.4715 16.81 19.2868 16.1968C19.0837 15.4977 19.1391 14.7985 19.4345 14.2284C19.7761 13.5722 20.3669 13.1634 21.1977 13.0128C21.5762 12.9375 21.9547 12.9053 22.3147 12.9053C25.7025 12.9053 29.0812 12.9053 32.469 12.9053H52.7593C54.6702 12.9053 56.581 12.9053 58.4919 12.9268C60.4674 12.9375 62.3875 13.3571 64.206 14.1638C65.683 14.82 67.1323 15.5084 68.5816 16.2076L75.5235 19.5207C78.0529 20.7254 80.573 21.9302 83.1024 23.135C84.9117 23.9955 86.1856 24.8023 87.2564 25.7489C88.0041 26.4158 88.5949 27.0827 89.0657 27.7819C92.4536 32.8268 95.8507 37.8717 99.2478 42.9059C99.7278 43.6159 100.06 44.3043 100.254 45.0035C100.669 46.4556 100.402 47.9186 99.497 49.1233L98.5277 50.4141C96.783 52.7376 95.0383 55.0503 93.3121 57.3845C92.5182 58.4602 91.4474 59.1379 90.0535 59.4606C89.0657 59.6865 88.1057 59.6972 87.1733 59.6972L87.1826 59.6865ZM61.3813 56.4487H87.0718C87.9395 56.4487 88.7611 56.4487 89.5273 56.2766C90.3119 56.0937 90.8474 55.771 91.2258 55.2654C92.9521 52.9312 94.706 50.6078 96.4507 48.2843L97.42 46.9935C97.7523 46.5525 97.7154 46.2835 97.6415 46.0254C97.54 45.6704 97.3554 45.3047 97.0784 44.8959C93.6813 39.851 90.2843 34.8168 86.8964 29.7719C86.5733 29.2878 86.1394 28.8145 85.5856 28.3197C84.7178 27.556 83.6378 26.8783 82.0685 26.1253C79.5391 24.9206 77.0097 23.7158 74.4896 22.5111L67.5477 19.198C66.1169 18.5096 64.6953 17.8319 63.2367 17.1865C61.732 16.5195 60.135 16.1753 58.4919 16.1646C56.581 16.1646 54.6794 16.1538 52.7685 16.1538H32.4783C29.1273 16.1538 25.7764 16.1538 22.4162 16.1538C25.9333 21.3924 29.4597 26.6309 32.986 31.8695L35.3861 35.43L37.417 38.4418C41.0541 43.8417 44.682 49.2309 48.3191 54.6308C48.4945 54.8889 48.716 55.1686 48.9929 55.4913C49.3991 55.9539 49.9622 56.2443 50.6546 56.3519C51.19 56.4379 51.6515 56.4702 52.0854 56.481C54.624 56.4917 57.1626 56.481 59.6919 56.481H61.3813V56.4487Z" fill="#F4ABC9"/>
<path d="M1.87619 44.6804C1.58079 44.6804 1.27616 44.5728 1.02692 44.3362C0.426886 43.7876 0.316112 42.7764 0.786904 42.0773L19.5263 14.0021C19.9971 13.3029 20.8648 13.1738 21.4649 13.7224C22.0649 14.271 22.1757 15.2821 21.7049 15.9813L2.97471 44.0673C2.69777 44.476 2.2916 44.6912 1.87619 44.6912V44.6804Z" fill="#F4ABC9"/>
<path d="M80.3143 76.445C80.0189 76.445 79.7143 76.3374 79.4558 76.1008C78.8558 75.5522 78.7542 74.5303 79.225 73.8311L96.8474 47.7459C97.3182 47.0467 98.1952 46.9284 98.7952 47.477C99.3953 48.0256 99.4968 49.0475 99.026 49.7467L81.4036 75.8319C81.1266 76.2406 80.7205 76.445 80.3143 76.445Z" fill="#F4ABC9"/>
</g>
<defs>
<clipPath id="clip0_343_1038">
<rect width="100" height="100" fill="white"/>
</clipPath>
</defs>
</svg>
