<svg width="120" height="93" viewBox="0 0 120 93" fill="none" xmlns="http://www.w3.org/2000/svg">
<g clip-path="url(#clip0_332_3150)">
<g clip-path="url(#clip1_332_3150)">
<path d="M120 61.4015C120 57.4568 120 53.5121 120 49.5745C120 48.6604 119.93 47.7533 119.803 46.8814C119.473 44.6032 118.671 42.3531 117.363 40.0046C117.026 39.4069 116.695 38.8022 116.358 38.2045C115.957 37.4873 115.556 36.7701 115.155 36.0529L112.399 31.0816C111.267 29.0495 110.142 27.0173 109.01 24.9782C108.806 24.6055 108.602 24.2329 108.391 23.8602C107.793 22.7773 107.182 21.6523 106.499 20.5273C104.756 17.6514 102.393 15.345 99.482 13.6785C96.4163 11.9207 93.3646 10.1557 90.3059 8.3838L87.3948 6.70327C86.4034 6.13372 85.3065 5.54307 83.9916 5.12821C82.9157 4.79069 81.8329 4.61491 80.7711 4.61491C78.746 4.61491 76.7702 5.24774 75.0404 6.4431C73.7326 7.35017 72.4036 8.21505 71.384 8.87601C69.7105 9.95887 68.03 11.0206 66.3424 12.0894L65.4283 12.666C64.3103 13.3762 63.3611 14.2833 62.6087 15.345C61.1391 13.5379 59.3812 12.0402 57.3561 10.88C52.4552 8.07442 47.5472 5.26884 42.6392 2.47029C41.8868 2.04137 41.1274 1.6476 40.375 1.30306C39.3625 0.831945 38.4202 0.67022 37.7944 0.592873C37.5132 0.557716 37.2249 0.536621 36.9366 0.536621C34.2084 0.536621 31.8317 2.19606 30.8754 4.77663C30.6645 5.35322 30.3692 6.24622 30.2918 7.33611C30.2215 8.39787 30.1863 9.34712 30.1793 10.2401V16.5193L28.3792 15.4786L22.6907 12.1949L18.964 10.0432C16.2639 8.48225 13.5638 6.92125 10.8637 5.36728C10.2731 5.02977 9.63319 4.74851 8.96519 4.53053C8.23392 4.29849 7.49561 4.17895 6.76433 4.17895C3.81109 4.17895 1.25864 6.14075 0.421892 9.05883C0.154694 10.0362 0.014063 11.0277 0.00703152 11.9839C0 18.8045 0 25.6251 0 32.4457V36.7912V41.0663C0 47.7604 0 54.4473 0 61.1413C0 61.7812 0.0421892 62.4422 0.133599 63.1735C0.428923 65.5923 1.561 67.7018 3.41029 69.2628C4.09938 69.8464 4.76737 70.3245 5.46349 70.7324C7.48154 71.9137 9.50662 73.0809 11.5317 74.2481L13.0716 75.1341L27.2893 83.3399L33.9201 87.165L34.0115 87.2213C34.9186 87.7486 36.1631 88.4659 37.7523 88.8878C38.6101 89.1128 39.4679 89.2323 40.3188 89.2323C41.8657 89.2323 43.3634 88.8596 44.7697 88.1213C47.3995 86.7502 50.0363 85.3861 52.6732 84.029L54.3185 83.1782C56.0905 82.2641 57.4546 80.8999 58.3265 79.1842C59.3531 80.2601 60.5063 81.1671 61.7719 81.8984C64.0572 83.2133 66.3846 84.5704 68.6347 85.8853C70.3293 86.8767 72.0239 87.8612 73.7185 88.8456C75.3358 89.7808 76.9811 90.6948 78.5703 91.5668L78.95 91.7777C79.625 92.1504 80.3774 92.4457 81.193 92.6496C81.7344 92.7903 82.297 92.8606 82.8454 92.8606C85.3065 92.8606 87.5284 91.4824 88.6535 89.2675C89.0894 88.4096 89.3707 87.5236 89.4902 86.6236C89.5957 85.822 89.6519 85.0767 89.6519 84.3454C89.6519 78.8045 89.6519 73.2567 89.6519 67.7158C90.0176 67.9268 90.3832 68.1377 90.7489 68.3487C90.7489 69.0167 90.7489 69.6565 90.7559 70.2472C90.7559 70.9785 90.7981 71.7238 90.8684 72.4551C91.0512 74.3536 91.7755 76.1537 92.9638 77.6514C94.0888 79.0647 95.3897 79.9155 96.5147 80.5554L98.5609 81.7297C100.136 82.6297 101.704 83.5297 103.279 84.4227C105.213 85.5197 107.104 86.5744 108.904 87.5658C109.664 87.9877 110.479 88.3112 111.316 88.5292C111.935 88.6909 112.554 88.7682 113.165 88.7682C116.203 88.7682 118.734 86.8064 119.613 83.7688C119.684 83.5227 119.845 82.9672 119.895 82.243L119.916 81.8984C119.951 81.4343 119.986 80.914 119.986 80.3163C119.986 76.3365 119.986 72.3637 119.986 68.3909V65.1001C119.986 65.0649 119.986 65.0298 119.986 64.9946V61.4015H120ZM110.121 38.8373C110.852 40.1593 111.597 41.4742 112.329 42.7961C111.59 41.4742 110.852 40.1593 110.121 38.8373ZM83.415 11.0769C83.7877 11.2597 84.1533 11.4636 84.5189 11.6746C88.555 14.002 92.5841 16.3435 96.6202 18.6569C92.5771 16.3365 88.548 14.002 84.5189 11.6746C84.1533 11.4636 83.7877 11.2597 83.415 11.0769C83.0423 10.8941 82.6556 10.7323 82.2548 10.5987C82.6556 10.7253 83.0423 10.887 83.415 11.0769ZM84.3361 58.0756C84.3361 58.0756 84.3009 58.0756 84.2799 58.0686C84.2939 58.0686 84.315 58.0686 84.3361 58.0756ZM83.9845 58.2022C83.9845 58.2022 83.9705 58.2303 83.9634 58.2444C83.9705 58.2303 83.9775 58.2162 83.9845 58.2022ZM80.8414 10.3667C80.8414 10.3667 80.7782 10.3667 80.743 10.3667C80.75 10.3667 80.7571 10.3667 80.7641 10.3667C80.7922 10.3667 80.8133 10.3667 80.8414 10.3667ZM79.6039 10.5355C79.5406 10.5565 79.4773 10.5776 79.4211 10.5987C79.4844 10.5776 79.5476 10.5565 79.6039 10.5355ZM79.0273 10.7605C78.9711 10.7886 78.9148 10.8097 78.8586 10.8378C78.9148 10.8097 78.9711 10.7816 79.0273 10.7605ZM37.0561 6.28138C36.9858 6.27435 36.9225 6.28138 36.8593 6.28138C36.8874 6.28138 36.9155 6.26731 36.9436 6.26731C36.9788 6.26731 37.021 6.26731 37.0561 6.27435V6.28138ZM36.5639 6.39388C36.5217 6.42201 36.4866 6.45717 36.4514 6.49232C36.4866 6.45717 36.5217 6.41498 36.5639 6.39388ZM36.3952 6.54858C36.346 6.61186 36.3108 6.68218 36.2756 6.76655C36.3038 6.68218 36.346 6.61186 36.3952 6.54858ZM6.38462 10.0362C6.31431 10.0784 6.25806 10.1276 6.2018 10.1909C6.25806 10.1276 6.31431 10.0714 6.38462 10.0362ZM6.13852 10.2683C6.07524 10.3667 6.01195 10.4792 5.9768 10.6269C6.01899 10.4862 6.07524 10.3667 6.13852 10.2683ZM5.76585 11.998C5.76585 11.998 5.76585 11.9629 5.76585 11.9418C5.76585 11.9558 5.76585 11.9769 5.76585 11.998C5.75179 20.2671 5.75882 28.5291 5.75882 36.7982C5.75882 28.5291 5.75882 20.2671 5.76585 11.998ZM15.9475 70.1487C13.4161 68.6932 10.8918 67.2377 8.36751 65.7611C10.8848 67.2307 13.4161 68.6862 15.9475 70.1487ZM38.582 83.1078C38.7929 83.1922 39.0039 83.2625 39.2218 83.3188C39.0039 83.2625 38.7859 83.1852 38.582 83.1078ZM40.0797 83.4524C40.2625 83.4664 40.4383 83.4664 40.6141 83.4524C40.5156 83.4594 40.4172 83.4735 40.3117 83.4735C40.2344 83.4735 40.157 83.4594 40.0727 83.4594L40.0797 83.4524ZM42.0907 83.0164C41.8798 83.1219 41.6758 83.2063 41.4649 83.2766C41.6758 83.2063 41.8798 83.1289 42.0907 83.0164ZM40.7125 83.4454C40.9235 83.4243 41.1274 83.3821 41.3313 83.3188C41.1274 83.375 40.9235 83.4243 40.7125 83.4454ZM82.6064 87.0807C82.6978 87.1017 82.7821 87.1088 82.8665 87.1088C82.8595 87.1088 82.8454 87.1088 82.8384 87.1088C82.761 87.1088 82.6837 87.1017 82.6064 87.0807ZM83.1759 87.0244C83.2251 86.9963 83.2673 86.9681 83.3095 86.933C83.2673 86.9681 83.2251 87.0033 83.1759 87.0244ZM83.3658 86.8838C83.422 86.8275 83.4712 86.7572 83.5134 86.6728C83.4712 86.7572 83.422 86.8205 83.3658 86.8838ZM87.1909 59.6577C86.5159 59.271 85.8479 58.8702 85.1729 58.4764C85.0463 58.4061 84.9197 58.3358 84.7932 58.2655C84.9197 58.3358 85.0463 58.3991 85.1729 58.4764C85.8479 58.8702 86.5159 59.2639 87.1909 59.6577C90.1582 61.3734 93.1255 63.0891 96.0998 64.7907C93.1255 63.0891 90.1582 61.3664 87.1909 59.6577ZM96.3108 64.9454C96.4022 65.0298 96.4655 65.1282 96.4936 65.2618C96.4655 65.1353 96.4022 65.0368 96.3108 64.9454ZM96.5077 70.212C96.5077 70.7816 96.5428 71.3511 96.5991 71.9137C96.5428 71.3511 96.5147 70.7816 96.5077 70.212ZM98.2867 74.8669C98.4695 75.0075 98.6593 75.1411 98.8492 75.2607C98.6523 75.1411 98.4695 75.0075 98.2867 74.8669ZM112.772 82.9672C112.933 83.0094 113.081 83.0235 113.215 83.0164C113.201 83.0164 113.186 83.0164 113.172 83.0164C113.053 83.0164 112.919 82.9953 112.772 82.9602V82.9672ZM113.566 82.9321C113.496 82.9672 113.411 82.9953 113.32 83.0024C113.411 82.9883 113.489 82.9672 113.566 82.9321ZM113.665 82.8688C113.728 82.8195 113.791 82.7633 113.84 82.6859C113.784 82.7563 113.728 82.8195 113.665 82.8688ZM113.918 82.5945C113.988 82.482 114.044 82.3484 114.094 82.1867C114.044 82.3484 113.988 82.475 113.918 82.5945Z" fill="#4737FF"/>
<path d="M113.166 83.8391C112.976 83.8391 112.779 83.811 112.568 83.7547C112.132 83.6422 111.696 83.4665 111.302 83.2485C109.439 82.2219 107.575 81.1812 105.726 80.1265C104.207 79.2686 102.696 78.4037 101.184 77.5318L98.9759 76.2732C98.2727 75.8724 97.4711 75.3732 96.8453 74.5856C96.2406 73.8262 95.8891 72.9473 95.7976 71.984C95.7414 71.3933 95.7062 70.8027 95.7062 70.212C95.6922 68.644 95.6922 67.0689 95.7062 65.5009C93.0975 64.0032 90.5521 62.5336 88.0067 61.064L84.6878 59.1303C84.6878 59.2428 84.6949 59.3554 84.6949 59.4679V60.2202C84.6949 61.5914 84.6878 62.9555 84.6667 64.3266C84.6667 64.6431 84.5894 64.9735 84.4488 65.3462C84.1183 66.2041 83.4292 66.6119 82.5362 66.4642C82.1002 66.3939 81.6713 66.2462 81.3057 66.0494C80.0892 65.3884 78.8939 64.6993 77.6915 64.0102C76.1305 63.1102 74.5765 62.2101 73.0225 61.3101L68.7544 58.8421C68.0372 58.4272 67.1231 57.8225 66.4621 56.8521C65.9559 56.1068 65.6605 55.263 65.5691 54.3419C65.4215 52.7809 65.4426 51.2058 65.4636 49.694C65.4707 49.0964 65.4777 48.4987 65.4777 47.901C65.4707 44.6595 65.4777 41.4179 65.4988 38.1834L65.5129 34.9138C65.5269 30.5542 65.548 26.2017 65.5691 21.8422C65.5691 20.9421 65.759 20.0421 66.1105 19.1772C66.5184 18.1928 67.1793 17.4053 68.0723 16.8357L69.0638 16.2099C70.7303 15.1552 72.3967 14.1005 74.0562 13.0317C75.1039 12.3566 76.4891 11.4566 77.8532 10.5144C79.2595 9.54403 80.8205 9.31902 82.494 9.84639C83.4151 10.1417 84.2308 10.5917 84.9199 10.9925L88.0419 12.7926C91.0303 14.5224 94.0257 16.2521 97.0211 17.9748C99.2009 19.2264 100.966 20.9492 102.267 23.1008C102.892 24.1344 103.483 25.2103 104.053 26.2439L113.039 42.4234C114.051 44.2446 114.663 45.9392 114.909 47.6127C115.001 48.2596 115.05 48.9276 115.05 49.6026C115.057 53.5614 115.057 57.5201 115.05 61.4859V65.0157V68.419C115.05 72.3918 115.05 76.3646 115.05 80.3374C115.05 80.7453 115.022 81.1531 114.994 81.5609L114.966 81.9547C114.952 82.1445 114.902 82.3063 114.874 82.4258C114.607 83.354 113.988 83.8532 113.166 83.8532V83.8391ZM84.2167 57.2459C84.4347 57.2459 84.6667 57.3021 84.9199 57.4147C85.1168 57.5061 85.2996 57.6115 85.4824 57.717L88.8224 59.6577C91.3818 61.1343 93.9413 62.618 96.5078 64.0876C97.0703 64.411 97.3375 64.8751 97.3305 65.5079C97.3094 67.076 97.3164 68.644 97.3305 70.205C97.3305 70.7464 97.3657 71.2949 97.4149 71.8363C97.4782 72.4832 97.7172 73.0739 98.118 73.5872C98.5188 74.0934 99.0743 74.4661 99.7845 74.8739L101.992 76.1326C103.504 76.9974 105.016 77.8623 106.535 78.7202C108.384 79.7679 110.233 80.8015 112.097 81.8281C112.378 81.9828 112.68 82.1023 112.99 82.1867C113.137 82.2289 113.208 82.2148 113.222 82.2148C113.222 82.2148 113.271 82.1445 113.32 81.9687C113.334 81.9195 113.348 81.8703 113.355 81.8281L113.383 81.4273C113.412 81.0546 113.44 80.689 113.44 80.3163C113.44 76.3435 113.44 72.3707 113.44 68.4049V65.0017V62.2594C113.44 58.0334 113.44 53.8145 113.44 49.5886C113.44 48.9909 113.398 48.3932 113.313 47.8237C113.095 46.347 112.547 44.8353 111.633 43.1899L102.639 27.0033C102.077 25.9837 101.5 24.929 100.888 23.9235C99.7283 22.0109 98.1532 20.4781 96.2195 19.3671C93.2171 17.6443 90.2287 15.9146 87.2332 14.1848L84.1112 12.3848C83.4925 12.0262 82.7682 11.6254 82.0018 11.3793C80.7994 10.9996 79.7728 11.1402 78.7814 11.8293C77.3961 12.7856 76.0039 13.6926 74.9421 14.3817C73.2827 15.4505 71.6092 16.5123 69.9427 17.567L68.9513 18.1928C68.3325 18.5866 67.8966 19.0999 67.6223 19.7819C67.3481 20.4499 67.2075 21.146 67.2004 21.8351C67.1793 26.1947 67.1653 30.5472 67.1442 34.9067L67.1301 38.1764C67.1161 41.4109 67.102 44.6454 67.109 47.8869C67.109 48.4916 67.109 49.1034 67.095 49.7081C67.0739 51.1847 67.0528 52.7035 67.1934 54.1801C67.2567 54.827 67.4606 55.4177 67.8122 55.931C68.1848 56.4795 68.7263 56.9365 69.5701 57.4287L73.8452 59.8968C75.3992 60.7968 76.9602 61.6968 78.5142 62.5969C79.7025 63.286 80.8908 63.961 82.0932 64.622C82.2971 64.7345 82.5503 64.8188 82.8034 64.861C82.8456 64.8681 82.8737 64.8681 82.8878 64.8681C82.8878 64.861 82.9089 64.8259 82.93 64.7626C83.0214 64.5306 83.0425 64.3829 83.0425 64.3055C83.0565 62.9414 83.0635 61.5773 83.0635 60.2202V59.4679C83.0635 59.3554 83.0635 59.2499 83.0635 59.1374C83.0565 58.9335 83.0495 58.7295 83.0635 58.5327C83.0917 57.9983 83.2815 57.6186 83.6401 57.4006C83.8159 57.2951 84.0128 57.2389 84.2238 57.2389L84.2167 57.2459Z" fill="black"/>
<path d="M82.8385 87.9246C82.6979 87.9246 82.5572 87.9035 82.4096 87.8684C82.0088 87.7629 81.6431 87.6293 81.3408 87.4605L80.9892 87.2637C79.386 86.3777 77.7828 85.4917 76.1937 84.5706C74.4991 83.5932 72.8115 82.6088 71.124 81.6244C68.8317 80.2814 66.5324 78.9454 64.226 77.6234C62.7002 76.7515 61.4627 75.528 60.429 73.8897C59.7821 72.8631 59.1633 71.8013 58.5657 70.7747L58.1156 70.0083C57.082 68.2434 56.0554 66.4785 55.0218 64.7065L54.4733 63.7643V66.2183C54.4733 66.7808 54.4803 67.3434 54.4592 67.9059C54.4452 68.3911 54.3749 68.8411 54.2553 69.2559C53.953 70.2896 53.0459 70.7958 52.0052 70.5005C51.5904 70.388 51.1685 70.2122 50.7888 69.9942C48.1028 68.4543 45.4237 66.9074 42.7447 65.3605L38.0617 62.6604C36.4585 61.7392 35.5163 60.4032 35.2632 58.6875C35.1929 58.1953 35.1577 57.7172 35.1366 57.2742C35.1226 56.9367 35.1226 56.6062 35.1226 56.2687V53.3295C35.1226 38.9641 35.1226 24.6057 35.1226 10.2403C35.1226 9.45281 35.1577 8.61606 35.221 7.67383C35.2491 7.22382 35.3898 6.80896 35.5093 6.49957C35.7695 5.79642 36.4164 5.39562 37.1547 5.50109C37.4992 5.54328 37.907 5.6136 38.2938 5.79642C38.9336 6.09174 39.5665 6.42222 40.1923 6.7738C45.1003 9.57235 50.0013 12.3709 54.9022 15.1765C56.857 16.2945 58.4883 17.8555 59.747 19.8102C60.2884 20.654 60.7947 21.533 61.2798 22.3838C61.4978 22.7635 61.7088 23.1362 61.9267 23.5159L65.3792 29.4223C65.3792 28.445 65.3792 27.4605 65.3792 26.4832C65.3792 25.9206 65.4495 25.3722 65.5128 24.8448L65.5269 24.7393C65.562 24.43 65.6675 24.1628 65.773 23.9167C66.0964 23.1783 66.7504 22.7986 67.5027 22.9252C67.9527 22.9955 68.3254 23.1151 68.6348 23.2768C69.3661 23.6565 70.1255 24.0714 71.0326 24.5917C74.6257 26.666 78.2188 28.7473 81.8049 30.8286C83.0494 31.5459 83.8159 32.3826 84.2378 33.4514C84.5471 34.2389 84.7018 35.0405 84.7018 35.8492C84.7018 39.2665 84.7018 42.6768 84.7018 46.0941V52.9147C84.7018 63.4057 84.7018 73.8897 84.7018 84.3807C84.7018 84.894 84.6667 85.4214 84.5823 86.005C84.5331 86.3496 84.4206 86.7082 84.2378 87.0668C83.9495 87.6293 83.4291 87.9457 82.8315 87.9528L82.8385 87.9246ZM53.8053 60.2134C54.0795 60.2134 54.3327 60.354 54.4874 60.579L54.5928 60.7337C54.6632 60.8462 54.7265 60.9376 54.7827 61.0361L56.4421 63.8838C57.4687 65.6488 58.5024 67.4137 59.529 69.1786L59.979 69.952C60.5696 70.9646 61.1814 72.0123 61.8072 73.0178C62.6932 74.4241 63.7549 75.4718 65.0417 76.2101C67.348 77.5391 69.6473 78.8751 71.9467 80.2181C73.6342 81.2025 75.3218 82.1869 77.0093 83.1643C78.5844 84.0784 80.1806 84.9573 81.7767 85.8433L82.1283 86.0402C82.3111 86.1457 82.5432 86.23 82.8104 86.3003C82.8877 86.1175 82.951 85.9347 82.9721 85.766C83.0424 85.2527 83.0776 84.7956 83.0776 84.3526C83.0776 73.8616 83.0776 63.3776 83.0776 52.8936V46.073C83.0776 42.6627 83.0776 39.2454 83.0776 35.8351C83.0776 35.2304 82.958 34.6257 82.726 34.028C82.4447 33.3108 81.9103 32.7553 80.9962 32.2209C77.4102 30.1396 73.817 28.0582 70.2239 25.9839C69.345 25.4777 68.6067 25.0698 67.8965 24.7042C67.7488 24.6268 67.5449 24.5636 67.2848 24.5214C67.2848 24.5284 67.2777 24.5425 67.2707 24.5495C67.2144 24.6761 67.1582 24.8167 67.1441 24.9151L67.1301 25.0206C67.0668 25.5269 67.0105 26.012 67.0105 26.4832C66.9965 27.7488 67.0105 29.0215 67.0105 30.2872V32.1224C67.0105 32.4318 66.8418 32.7061 66.5675 32.8467L66.455 32.9029C66.0894 33.0787 65.6534 32.9592 65.4284 32.6217L65.3159 32.46C65.2175 32.3193 65.119 32.1787 65.0347 32.024L60.5275 24.3104C60.3025 23.9307 60.0845 23.551 59.8665 23.1643C59.3954 22.3346 58.9032 21.4697 58.3828 20.6681C57.2648 18.9383 55.8234 17.5531 54.0936 16.5617C49.1926 13.7561 44.2917 10.9505 39.3907 8.15901C38.8071 7.82853 38.2094 7.51914 37.6187 7.24491C37.45 7.16756 37.218 7.12538 37.0211 7.09725C36.9437 7.3082 36.8664 7.5543 36.8523 7.76524C36.789 8.67231 36.7609 9.4739 36.7609 10.2192C36.7609 24.5847 36.7609 38.943 36.7609 53.3084V56.2546C36.7609 56.557 36.7609 56.8664 36.775 57.1687C36.7961 57.5766 36.8242 58.0125 36.8875 58.4344C37.0633 59.6438 37.7172 60.565 38.8915 61.233L43.5745 63.9331C46.2535 65.48 48.9325 67.0269 51.6185 68.5668C51.8787 68.7145 52.174 68.8411 52.4623 68.9184C52.5818 68.9536 52.6381 68.9395 52.6451 68.9325C52.6451 68.9325 52.6873 68.8973 52.7225 68.7778C52.8068 68.4965 52.849 68.1801 52.8631 67.8285C52.8842 67.2871 52.8772 66.7527 52.8772 66.2113V64.3831C52.8772 63.5041 52.8772 62.6252 52.8772 61.7463C52.8772 61.4298 52.8701 61.0361 53.1162 60.6142C53.2569 60.3681 53.517 60.2134 53.7983 60.2064H53.8194L53.8053 60.2134Z" fill="black"/>
<path d="M40.3188 84.2824C39.8969 84.2824 39.4609 84.2261 39.0109 84.1066C38.0616 83.8534 37.253 83.3894 36.4796 82.9393L14.042 69.9943C12.0098 68.8271 9.98477 67.6528 7.95969 66.4715C7.5167 66.2113 7.07372 65.8949 6.60964 65.5012C5.71663 64.7488 5.18927 63.7644 5.04864 62.5831C4.98535 62.0557 4.9502 61.5846 4.9502 61.1487C4.9502 54.5812 4.9502 48.0067 4.9502 41.4393V32.2491C4.9502 25.4988 4.9502 18.7556 4.95723 12.0053C4.95723 11.5061 5.04161 10.9717 5.1963 10.4162C5.38615 9.76227 5.75179 9.44585 6.03305 9.29819C6.44791 9.08021 6.93309 9.05911 7.48154 9.2349C7.81203 9.34038 8.12845 9.48101 8.41674 9.64273C11.145 11.2108 13.8662 12.7858 16.5874 14.3609L33.2029 23.9519C34.7709 24.859 36.3389 25.759 37.8999 26.6801C39.482 27.6083 40.7969 28.881 41.8165 30.4771C42.6603 31.7991 43.4759 33.1632 44.2635 34.4781L48.0675 40.8346C49.4738 43.1831 50.8801 45.5387 52.2935 47.8872C53.2708 49.5185 53.8615 50.8475 54.192 52.1975C54.424 53.1186 54.5295 53.9695 54.5295 54.7922C54.5295 61.1838 54.5295 67.5825 54.5295 73.9742C54.5295 74.7617 54.4381 75.4578 54.2482 76.1047C53.8966 77.3141 53.1583 78.2212 52.0474 78.7907L50.2402 79.7189C47.6456 81.0549 45.051 82.3909 42.4704 83.7409C41.7743 84.1066 41.0641 84.2894 40.3188 84.2894V84.2824ZM6.79246 10.7326C6.79246 10.7326 6.77136 10.7889 6.75027 10.8522C6.63776 11.253 6.57448 11.6467 6.57448 11.9913C6.56745 18.7415 6.56745 25.4848 6.56745 32.235V41.4252C6.56745 47.9927 6.56745 54.5671 6.56745 61.1346C6.56745 61.5073 6.59557 61.9081 6.65182 62.3721C6.74323 63.1315 7.08075 63.7644 7.6503 64.2496C8.04407 64.58 8.40971 64.8472 8.77535 65.0582C10.7934 66.2395 12.8255 67.4067 14.8506 68.5739L37.2952 81.519C38.0124 81.9338 38.6945 82.3276 39.4328 82.5245C40.2625 82.7425 40.9868 82.6721 41.718 82.2854C44.3056 80.9354 46.9003 79.5923 49.4949 78.2564L51.295 77.3282C52.0052 76.9626 52.4552 76.4071 52.6802 75.6336C52.8279 75.1344 52.8982 74.5859 52.8911 73.9531C52.8911 67.5544 52.8911 61.1627 52.8911 54.7711C52.8911 54.082 52.7997 53.3647 52.6028 52.5702C52.3075 51.3819 51.7802 50.1865 50.8872 48.7029C49.4738 46.3543 48.0675 44.0058 46.6612 41.6502L42.8572 35.2867C42.0767 33.9788 41.268 32.6288 40.4383 31.328C39.5594 29.9498 38.4273 28.8529 37.0702 28.0583C35.5092 27.1442 33.9482 26.2442 32.3802 25.3371L15.7647 15.7461C13.0435 14.171 10.3152 12.603 7.59405 11.0279C7.41123 10.9225 7.19325 10.8311 6.97527 10.7607C6.87683 10.7326 6.82058 10.7186 6.78542 10.7186L6.79246 10.7326Z" fill="black"/>
<path d="M101.127 72.2722C101.127 72.3496 101.064 72.3777 100.987 72.3285L100.108 71.8293C100.031 71.7871 99.9673 71.6886 99.9673 71.6113V67.2658C99.9673 67.1885 100.031 67.1603 100.108 67.2095L100.987 67.7088C101.064 67.751 101.127 67.8494 101.127 67.9268V72.2722ZM106.661 75.4435C106.661 75.5208 106.598 75.5489 106.521 75.4997L105.501 74.9161C105.459 74.888 105.417 74.8458 105.389 74.7966L103.167 70.6198V73.4465C103.167 73.5239 103.103 73.552 103.026 73.5028L102.147 73.0035C102.07 72.9613 102.006 72.8629 102.006 72.7855V68.4401C102.006 68.3627 102.07 68.3346 102.147 68.3838L103.096 68.9252C103.139 68.9534 103.181 68.9956 103.209 69.0448L105.501 73.3551V70.437C105.501 70.3597 105.564 70.3315 105.642 70.3808L106.521 70.88C106.598 70.9222 106.661 71.0206 106.661 71.098V75.4435ZM111.26 74.5997C111.26 74.677 111.197 74.7052 111.119 74.6559L108.996 73.4395C108.841 73.3551 108.715 73.4114 108.715 73.566V75.3099C108.715 75.4646 108.841 75.6685 109.003 75.7669L111.126 76.9834C111.204 77.0256 111.267 77.124 111.267 77.2013V78.0803C111.267 78.1576 111.204 78.1858 111.126 78.1365L109.003 76.9201C108.208 76.463 107.561 75.4505 107.561 74.6559V72.9051C107.561 72.1105 108.208 71.8363 109.003 72.2933L111.126 73.5098C111.204 73.552 111.267 73.6504 111.267 73.7278V74.6067L111.26 74.5997Z" fill="black"/>
</g>
</g>
<defs>
<clipPath id="clip0_332_3150">
<rect width="120" height="93" fill="white"/>
</clipPath>
<clipPath id="clip1_332_3150">
<rect width="120" height="92.345" fill="white" transform="translate(0 0.522949)"/>
</clipPath>
</defs>
</svg>
