<svg width="101" height="100" viewBox="0 0 101 100" fill="none" xmlns="http://www.w3.org/2000/svg">
<g clip-path="url(#clip0_318_2954)">
<rect x="0.876709" width="100" height="100" rx="50" fill="#F3711B"/>
<path d="M82.6866 18.1818C74.199 9.67769 62.8932 5 50.8767 5C38.8602 5 27.5544 9.67769 19.0585 18.1818C10.5544 26.6777 5.87671 37.9752 5.87671 50C5.87671 62.0248 10.5544 73.314 19.0585 81.8182C27.5544 90.314 38.8602 95 50.8767 95C62.8932 95 74.199 90.3223 82.6949 81.8182C91.1908 73.3223 95.8767 62.0165 95.8767 50C95.8767 37.9835 91.199 26.6777 82.6949 18.1818H82.6866ZM94.0833 49.1157H93.9511C88.9924 49.1157 84.8684 45.4463 84.0916 40.5455C82.7527 32.1736 79.6288 24.4793 74.9759 18.2727C74.8684 18.1322 74.7527 17.9917 74.6453 17.8512C75.7941 17.3802 76.9263 16.8843 78.0172 16.3388C79.2073 17.2975 80.356 18.3223 81.447 19.4215C89.4056 27.3802 93.8602 37.8926 94.0833 49.1074V49.1157ZM72.9263 81.4628C70.7114 80.6446 68.3974 79.9504 66.0007 79.3884C69.0172 71.4546 70.7032 61.4793 70.7941 50.876H71.8602C78.2403 50.876 83.042 56.8099 81.5875 63.0248C79.9594 69.9669 77.0255 76.2975 72.9511 81.4628H72.9346H72.9263ZM28.8023 81.4628C24.7197 76.2975 21.7858 69.9669 20.1577 63.0248C18.7032 56.8099 23.5048 50.8843 29.885 50.8843H30.9511C31.042 61.4876 32.7279 71.4628 35.7445 79.3967C33.3395 79.9587 31.0337 80.6529 28.8189 81.4711H28.8023V81.4628ZM28.8189 18.5289C31.0337 19.3471 33.3478 20.0413 35.7445 20.6033C32.7279 28.5372 31.042 38.5124 30.9511 49.1157H29.885C23.5048 49.1157 18.7032 43.1818 20.1577 36.9752C21.7858 30.0331 24.7197 23.7025 28.8023 18.5372H28.8189V18.5289ZM32.7197 50.9256C37.2321 51.1488 41.447 52.9835 44.6701 56.2066C48.0998 59.6364 49.9924 64.2066 49.9924 69.0579V77.7107C45.728 77.7603 41.5379 78.2149 37.4965 79.0331C34.4965 71.2727 32.8106 61.4215 32.7197 50.9256ZM49.9924 20.5207C45.9511 20.4711 41.9841 20.0496 38.1577 19.2893C38.1742 19.2479 38.1908 19.1901 38.2156 19.1488C41.4552 11.6612 45.604 7.32231 50.0007 6.80992V20.5207H49.9924ZM37.4965 20.9669C41.5379 21.7934 45.7197 22.2397 49.9924 22.2893V30.9421C49.9924 35.8017 48.0998 40.3636 44.6701 43.7934C41.447 47.0165 37.2321 48.8512 32.7197 49.0744C32.8106 38.5785 34.4965 28.7273 37.4965 20.9669ZM49.9924 79.4711V93.1736C45.604 92.6612 41.447 88.3306 38.2073 80.8347C38.1908 80.7851 38.1742 80.7355 38.1494 80.6942C41.9759 79.9339 45.9428 79.5207 49.9924 79.4711ZM51.7527 79.4711C55.7941 79.5207 59.761 79.9421 63.5957 80.6942C63.5792 80.7438 63.5627 80.7934 63.5379 80.8347C60.2982 88.3223 56.1494 92.6612 51.7527 93.1736V79.4711ZM64.2486 79.0331C60.2155 78.2149 56.0255 77.7603 51.7527 77.7107V69.0579C51.7527 64.1983 53.6453 59.6364 57.0751 56.2066C60.2982 52.9917 64.5131 51.1488 69.0255 50.9256C68.9346 61.4215 67.2486 71.2727 64.2486 79.0331ZM57.0751 43.7934C53.6453 40.3636 51.7527 35.7934 51.7527 30.9421V22.2893C56.0172 22.2397 60.2073 21.7851 64.2486 20.9669C67.2486 28.7273 68.9346 38.5785 69.0255 49.0744C64.5131 48.8512 60.2982 47.0165 57.0751 43.7934ZM51.7527 20.5207V6.81818C56.1494 7.33058 60.2982 11.6694 63.5379 19.157C63.5544 19.1983 63.5709 19.2562 63.5957 19.2975C59.761 20.0579 55.8023 20.4711 51.761 20.5289L51.7527 20.5207ZM65.1577 18.4545C63.0916 13.6694 60.6122 10.0744 57.9015 7.80992C62.9924 9.33058 67.7197 12.4876 71.7445 17.0992C69.7032 17.8264 67.5709 18.4463 65.356 18.9504C65.2899 18.7934 65.2321 18.6116 65.166 18.4545H65.1577ZM36.5875 18.4545C36.5213 18.6116 36.4635 18.7851 36.3974 18.9504C34.1908 18.4463 32.0585 17.8264 30.0089 17.0992C34.0255 12.4876 38.761 9.33058 43.8437 7.80992C41.1246 10.0744 38.6536 13.6694 36.5875 18.4545ZM36.3974 81.0496C36.4635 81.2066 36.5213 81.3884 36.5875 81.5455C38.6536 86.3306 41.1246 89.9256 43.8437 92.1901C38.7527 90.6777 34.0255 87.5124 30.0007 82.9008C32.0503 82.1736 34.1825 81.5537 36.3891 81.0496H36.3974ZM65.1577 81.5372C65.2238 81.3802 65.2817 81.2066 65.3478 81.0413C67.5544 81.5455 69.6866 82.1653 71.7362 82.8926C67.7197 87.5041 62.9841 90.6612 57.8932 92.1818C60.6122 89.9174 63.0833 86.3223 65.1494 81.5372H65.1577ZM70.7941 49.1157C70.7032 38.5124 69.0172 28.5289 66.0007 20.6033C68.4056 20.0413 70.7114 19.3471 72.9263 18.5289H72.9428C77.0255 23.7025 79.9594 30.0248 81.5875 36.9669C83.042 43.1818 78.2403 49.1157 71.8602 49.1157H70.7941ZM76.447 15.1322C75.4883 15.5868 74.4965 16.0165 73.4883 16.4132C71.0007 13.4628 68.2321 11.0496 65.2734 9.21488C69.2569 10.6198 73.0172 12.6033 76.447 15.1322ZM28.2651 16.4132C27.2569 16.0165 26.2651 15.5868 25.3065 15.1322C28.7362 12.6033 32.4965 10.6198 36.48 9.21488C33.5213 11.0496 30.7527 13.4711 28.2651 16.4132ZM20.3065 19.4298C21.4056 18.3306 22.5544 17.3058 23.7362 16.3471C24.8271 16.8843 25.9511 17.3884 27.0998 17.8595C26.9924 18 26.8767 18.1322 26.7693 18.281C22.1164 24.4876 18.9924 32.1818 17.6536 40.5537C16.8684 45.4545 12.7527 49.124 7.79406 49.124H7.66183C7.88497 37.9091 12.3478 27.3967 20.3065 19.438V19.4298ZM7.66183 50.876H7.79406C12.7527 50.876 16.8684 54.5455 17.6536 59.4463C18.9924 67.8182 22.1081 75.5124 26.7693 81.719C26.8767 81.8595 26.9924 82 27.0998 82.1405C25.9511 82.6116 24.8189 83.1074 23.7362 83.6529C22.5461 82.6942 21.3974 81.6694 20.3065 80.5703C12.3478 72.6116 7.89324 62.0992 7.66183 50.8843V50.876ZM25.3065 84.8595C26.2651 84.405 27.2569 83.9752 28.2651 83.5785C30.7527 86.5289 33.5131 88.9422 36.48 90.7769C32.5048 89.3719 28.7445 87.3884 25.3065 84.8595ZM73.4883 83.5785C74.4965 83.9752 75.4883 84.405 76.447 84.8595C73.0172 87.3884 69.2569 89.3719 65.2734 90.7769C68.2321 88.9422 71.0007 86.5207 73.4883 83.5785ZM81.447 80.5703C80.3478 81.6694 79.199 82.6942 78.0172 83.6529C76.9263 83.1157 75.8023 82.6116 74.6453 82.1405C74.7527 82 74.8684 81.8678 74.9759 81.719C79.6288 75.5124 82.7527 67.8182 84.0916 59.4463C84.8767 54.5455 88.9924 50.876 93.9511 50.876H94.0833C93.8602 62.0909 89.3974 72.6033 81.447 80.562V80.5703Z" fill="black"/>
</g>
<defs>
<clipPath id="clip0_318_2954">
<rect x="0.876709" width="100" height="100" rx="50" fill="white"/>
</clipPath>
</defs>
</svg>
