<svg width="100" height="100" viewBox="0 0 100 100" fill="none" xmlns="http://www.w3.org/2000/svg">
<g clip-path="url(#clip0_343_1067)">
<path d="M35.9351 88.1959H24.7471C23.825 88.185 22.6206 88.1192 21.4349 87.6258C20.4846 87.231 19.6754 86.6389 19.0261 85.8495C18.0099 84.6324 17.1724 83.3386 16.3538 82.0886C16.0432 81.6062 15.7233 81.1237 15.4034 80.6523C13.6344 78.0427 11.8936 75.4331 10.1528 72.8126L8.40266 70.192C6.05967 66.6834 3.71668 63.1747 1.37369 59.655C0.809116 58.7998 0.43272 57.8459 0.272756 56.8152C0.075155 55.5543 0.329218 54.3153 0.997299 53.2298L1.53365 52.3416C2.54048 50.697 3.54731 49.0523 4.53532 47.3966C5.14694 46.3769 5.94675 45.0283 6.70893 43.6467C7.60284 42.024 9.06133 41.0152 11.0562 40.6424C12.0912 40.445 13.1169 40.4341 13.9919 40.4341H17.7746C21.5573 40.4341 25.3399 40.4341 29.1226 40.4341H29.1602C31.8984 40.4341 34.5049 41.0152 36.9231 42.1446C38.0805 42.6928 39.2191 43.2849 40.32 43.855L57.4925 52.6815C59.4779 53.7013 61.0211 54.8197 62.2067 56.1025C62.6678 56.6069 63.1006 57.1551 63.4958 57.7362C65.6224 60.8831 67.7396 64.0299 69.8567 67.1768L71.8422 70.1262L73.7523 72.9661C75.8789 76.1239 78.0054 79.2817 80.132 82.4505C80.3672 82.8013 80.5743 83.1741 80.7907 83.536L80.9695 83.843C81.12 84.1061 81.1953 84.3693 81.2329 84.5008C81.5058 85.4657 81.3176 86.1675 81.1106 86.5841C80.7813 87.242 80.1979 87.6806 79.3698 87.8779C78.8899 87.9876 78.3724 88.0534 77.8643 88.0643C75.5589 88.0972 73.2536 88.1301 70.9388 88.1411C69.0193 88.1521 67.0997 88.163 65.1707 88.163H62.5172C61.6233 88.185 60.5789 88.1521 59.5344 87.7902C58.4805 87.4284 57.596 86.8363 56.9185 86.014C56.5327 85.5425 56.1564 85.06 55.827 84.5666C55.0178 83.3934 54.218 82.2092 53.4464 81.0251C50.0213 81.0251 46.6527 81.0251 43.2746 81.0251H41.2327C41.8255 81.9022 42.4089 82.7904 42.9923 83.6785C43.2276 84.0403 43.3969 84.4899 43.491 84.9943C43.6981 86.1126 43.2746 87.4284 41.8632 87.8889C41.3927 88.0424 40.894 88.1301 40.4235 88.1411C38.918 88.174 37.4219 88.174 35.9257 88.174L35.9351 88.1959ZM13.9449 43.7235C13.1921 43.7235 12.3359 43.7344 11.536 43.8879C9.96464 44.184 9.40008 44.9076 9.10838 45.423C8.31797 46.8593 7.49934 48.2409 6.86889 49.2825C5.87148 50.9382 4.85523 52.5938 3.84841 54.2495L3.31207 55.1267C3.02037 55.6091 3.02977 55.96 3.06741 56.2231C3.14268 56.7275 3.33088 57.188 3.61317 57.6266C5.94675 61.1353 8.28974 64.6439 10.6327 68.1526L12.3829 70.7732C14.1237 73.3827 15.8645 75.9923 17.6241 78.5909C17.9628 79.0843 18.2827 79.5887 18.6121 80.0821C19.4119 81.3101 20.1647 82.4614 21.0586 83.5469C21.3973 83.9636 21.849 84.2816 22.3853 84.5008C22.9969 84.753 23.7215 84.8627 24.7565 84.8627H35.9445C37.3654 84.8627 38.7957 84.8627 40.2165 84.8408C39.6802 84.0074 39.125 83.1961 38.5792 82.3737L38.1746 81.7707C38.1182 81.6939 38.0617 81.6172 38.0052 81.5404C37.8735 81.354 37.7418 81.1786 37.6289 80.9812C37.0737 80.0602 37.2619 79.2817 37.4124 78.8979C37.7041 78.1962 38.2781 77.8015 39.125 77.7357C39.3508 77.7138 39.5861 77.7138 39.8213 77.7138H43.284C46.7279 77.7247 50.1813 77.7357 53.6252 77.7138C53.9451 77.7357 54.8578 77.7138 55.5259 78.7335C56.3445 79.9944 57.2008 81.2444 58.0477 82.4943C58.33 82.9 58.6311 83.3057 58.9604 83.7004C59.2992 84.1061 59.7602 84.4131 60.3436 84.6105C60.9647 84.8188 61.661 84.8407 62.5266 84.8627H65.1896C67.1091 84.8517 69.0287 84.8407 70.9482 84.8298C73.2442 84.8188 75.5495 84.7859 77.8455 84.753C77.9396 84.753 78.0337 84.753 78.1278 84.7421C78.0713 84.6434 78.0054 84.5447 77.9396 84.446C75.8224 81.2882 73.6958 78.1304 71.5693 74.9726L69.6591 72.1328L67.9089 69.5342C65.7165 66.2667 63.5147 63.0102 61.3128 59.7537C61.0117 59.3042 60.673 58.8766 60.3154 58.4928C59.365 57.4621 58.0853 56.5411 56.3916 55.6749L39.2003 46.8374C38.1276 46.2782 37.0078 45.6971 35.8975 45.1708C33.818 44.1949 31.5597 43.7015 29.1885 43.7015H29.1508C25.3682 43.7015 21.5855 43.7015 17.7934 43.7015H14.0108C14.0108 43.7015 13.9637 43.7015 13.9449 43.7015V43.7235Z" fill="#4737FF"/>
<path d="M54.5567 59.5674H43.3687C42.4466 59.5564 41.2421 59.4906 40.0565 58.9972C39.1062 58.6025 38.2969 58.0104 37.6477 57.2209C36.6314 55.9929 35.794 54.6991 34.9753 53.4491C34.6648 52.9667 34.3449 52.4842 34.025 52.0127C32.256 49.4032 30.5058 46.7717 28.7556 44.1511L27.0242 41.5525C24.6812 38.0438 22.3382 34.5352 19.9953 31.0155C19.4307 30.1603 19.0543 29.2064 18.8943 28.1757C18.6967 26.9147 18.9508 25.6757 19.6189 24.5903L20.127 23.7569C21.1432 22.0903 22.1595 20.4347 23.1663 18.768C23.7779 17.7483 24.5777 16.3997 25.3399 15.0181C26.2338 13.3954 27.6923 12.3866 29.6871 12.0138C30.7222 11.8165 31.7478 11.7946 32.6229 11.8055H36.255C40.0847 11.8055 43.9239 11.8055 47.7536 11.8055H47.7912C50.5294 11.8055 53.1359 12.3866 55.5541 13.516C56.7115 14.0642 57.8501 14.6563 58.951 15.2265L76.1235 24.053C78.1089 25.0727 79.6521 26.1911 80.8377 27.4739C81.2988 27.9783 81.7316 28.5265 82.1268 29.1077C84.3193 32.3532 86.5023 35.5987 88.6947 38.8442L90.4731 41.4867L92.0728 43.866C94.3028 47.1773 96.5329 50.4887 98.763 53.8109C98.9982 54.1618 99.2052 54.5346 99.4216 54.8964L99.6004 55.2034C99.751 55.4666 99.8263 55.7297 99.8639 55.8613C100.137 56.8152 99.9486 57.5279 99.7416 57.9446C99.4123 58.6025 98.8289 59.041 98.0008 59.2384C97.5115 59.359 97.0034 59.4138 96.4953 59.4248C94.1899 59.4577 91.8846 59.4906 89.5698 59.5016C87.6502 59.5125 85.7307 59.5235 83.8017 59.5235H81.1482C80.2637 59.5235 79.2099 59.5125 78.1654 59.1507C77.1115 58.7889 76.227 58.1968 75.5495 57.3744C75.1637 56.903 74.7873 56.4205 74.458 55.9271C73.6488 54.7539 72.849 53.5697 72.0774 52.3855C68.6523 52.3855 65.2836 52.3855 61.9056 52.3855H59.8637C60.4565 53.2627 61.0399 54.1508 61.6233 55.039C61.8586 55.4008 62.0279 55.8504 62.122 56.3547C62.329 57.4621 61.9056 58.7889 60.4942 59.2494C60.0237 59.4029 59.525 59.4906 59.0545 59.5016C57.549 59.5345 56.0528 59.5345 54.5567 59.5345V59.5674ZM32.5571 15.0949C31.8043 15.0949 30.948 15.1059 30.1482 15.2594C28.5768 15.5554 28.0122 16.2791 27.7205 16.7944C26.9301 18.2308 26.1115 19.6123 25.4811 20.654C24.4742 22.3315 23.4486 23.9982 22.4323 25.6757L21.9242 26.5091C21.6325 26.9915 21.6419 27.3424 21.6796 27.6055C21.7548 28.1099 21.943 28.5704 22.2253 29.009C24.5589 32.5177 26.9019 36.0263 29.2449 39.535L30.9763 42.1336C32.717 44.7542 34.4672 47.3747 36.2362 49.9733C36.5656 50.4667 36.8949 50.9601 37.2148 51.4645C38.0146 52.6925 38.7674 53.8548 39.6707 54.9403C40.0095 55.3569 40.4611 55.6749 40.9881 55.8942C41.5997 56.1464 42.3242 56.256 43.3499 56.256H54.5379C55.9587 56.267 57.389 56.256 58.8098 56.2341C58.2735 55.4008 57.7183 54.5894 57.1726 53.7671L56.768 53.164C56.7115 53.0873 56.655 53.0105 56.5986 52.9338C56.4669 52.7474 56.3351 52.5719 56.2222 52.3746C55.667 51.4535 55.8552 50.6751 56.0058 50.2913C56.2975 49.5896 56.8715 49.1948 57.7183 49.129C57.9442 49.1071 58.1794 49.1071 58.4146 49.1071H61.8774C65.3213 49.1181 68.7746 49.129 72.2185 49.1071C72.5384 49.1181 73.4512 49.1071 74.1193 50.1268C74.9379 51.3878 75.7942 52.6377 76.641 53.8877C76.9233 54.2934 77.2244 54.6991 77.5538 55.0938C77.8925 55.4995 78.3536 55.8065 78.937 56.0039C79.558 56.2122 80.2543 56.256 81.12 56.256H83.7829C85.7025 56.2451 87.622 56.2341 89.5416 56.2231C91.8375 56.2122 94.1429 56.1793 96.4388 56.1464C96.5329 56.1464 96.627 56.1464 96.7211 56.1354C96.6646 56.0367 96.5988 55.9381 96.5329 55.8394C94.3123 52.5281 92.0822 49.2168 89.8521 45.9055L88.2525 43.5261L86.7281 41.2674C84.4604 37.8903 82.1833 34.5132 79.9062 31.1471C79.605 30.6975 79.2663 30.2699 78.9087 29.8862C77.9584 28.8555 76.6787 27.9345 74.9849 27.0683L57.7936 18.2308C56.7209 17.6716 55.6012 17.0905 54.4908 16.5642C52.4113 15.5883 50.153 15.0949 47.7818 15.0949H47.7442C43.9145 15.0949 40.0753 15.0949 36.2362 15.0949H32.6041C32.6041 15.0949 32.5571 15.0949 32.5383 15.0949H32.5571Z" fill="#4737FF"/>
<path d="M1.41132 57.5718C1.11963 57.5718 0.827929 57.4622 0.57387 57.2539C-0.0565725 56.7166 -0.188304 55.6859 0.282175 54.9513L19.2802 25.0618C19.7412 24.3271 20.6257 24.1736 21.2562 24.7219C21.8866 25.2701 22.0183 26.2898 21.5479 27.0244L2.54989 56.914C2.27701 57.3525 1.84417 57.5828 1.41132 57.5828V57.5718Z" fill="#4737FF"/>
<path d="M80.1419 87.0662C79.8408 87.0662 79.5397 86.9566 79.2857 86.7263C78.6646 86.1671 78.5517 85.1364 79.0316 84.4237L97.3427 56.7381C97.8226 56.0144 98.7071 55.8829 99.3187 56.4421C99.9397 57.0013 100.053 58.0319 99.5728 58.7446L81.2617 86.4303C80.9794 86.8469 80.5654 87.0662 80.1419 87.0662Z" fill="#4737FF"/>
</g>
<defs>
<clipPath id="clip0_343_1067">
<rect width="100" height="100" fill="white"/>
</clipPath>
</defs>
</svg>
