<svg width="101" height="100" viewBox="0 0 101 100" fill="none" xmlns="http://www.w3.org/2000/svg">
<g clip-path="url(#clip0_332_3150)">
<g clip-path="url(#clip1_332_3150)">
<path d="M100.877 62.2554C100.877 58.9682 100.877 55.6809 100.877 52.3996C100.877 51.6378 100.818 50.8819 100.713 50.1553C100.437 48.2568 99.7692 46.3817 98.6794 44.4246C98.3981 43.9266 98.1227 43.4226 97.8414 42.9246C97.5074 42.3269 97.1734 41.7292 96.8394 41.1315L94.5425 36.9888C93.5991 35.2954 92.6615 33.6019 91.7181 31.9027C91.5482 31.5921 91.3783 31.2815 91.2025 30.971C90.7044 30.0686 90.1946 29.1311 89.6263 28.1935C88.1731 25.7969 86.2042 23.875 83.7784 22.4863C81.2236 21.0214 78.6805 19.5506 76.1316 18.074L73.7057 16.6735C72.8795 16.1989 71.9654 15.7067 70.8697 15.361C69.9732 15.0797 69.0708 14.9332 68.186 14.9332C66.4984 14.9332 64.8519 15.4606 63.4104 16.4567C62.3205 17.2126 61.213 17.9334 60.3634 18.4842C58.9688 19.3865 57.5684 20.2713 56.1621 21.162L55.4003 21.6425C54.4686 22.2343 53.6776 22.9902 53.0506 23.875C51.826 22.3691 50.3611 21.121 48.6735 20.1541C44.5893 17.8162 40.4993 15.4782 36.4093 13.1461C35.7824 12.7886 35.1495 12.4605 34.5225 12.1734C33.6788 11.7808 32.8936 11.646 32.3721 11.5815C32.1377 11.5522 31.8974 11.5347 31.6572 11.5347C29.3837 11.5347 27.4031 12.9175 26.6062 15.068C26.4304 15.5485 26.1843 16.2927 26.1199 17.2009C26.0613 18.0857 26.032 18.8768 26.0261 19.6209V24.8535L24.5261 23.9863L19.7856 21.2499L16.6801 19.4569C14.43 18.156 12.1799 16.8552 9.9298 15.5602C9.43759 15.279 8.90437 15.0446 8.3477 14.8629C7.7383 14.6696 7.12305 14.5699 6.51365 14.5699C4.05261 14.5699 1.92558 16.2048 1.22829 18.6365C1.00562 19.451 0.888428 20.2772 0.882569 21.0741C0.876709 26.7579 0.876709 32.4417 0.876709 38.1256V41.7468V45.3094C0.876709 50.8878 0.876709 56.4603 0.876709 62.0386C0.876709 62.5718 0.911867 63.1226 0.988041 63.732C1.23414 65.7477 2.17754 67.5056 3.71862 68.8064C4.29286 69.2928 4.84952 69.6912 5.42962 70.0311C7.11133 71.0155 8.79889 71.9882 10.4865 72.9609L11.7697 73.6992L23.6178 80.5374L29.1434 83.725L29.2196 83.7719C29.9755 84.2113 31.0126 84.809 32.3369 85.1606C33.0518 85.3481 33.7667 85.4477 34.4757 85.4477C35.7648 85.4477 37.0129 85.1372 38.1848 84.5219C40.3763 83.3793 42.5736 82.2425 44.771 81.1116L46.1421 80.4026C47.6188 79.6409 48.7555 78.5041 49.4821 77.0743C50.3376 77.9709 51.2986 78.7268 52.3533 79.3362C54.2577 80.4319 56.1972 81.5628 58.0723 82.6585C59.4845 83.4848 60.8966 84.3051 62.3088 85.1254C63.6565 85.9048 65.0276 86.6665 66.3519 87.3931L66.6683 87.5689C67.2309 87.8794 67.8578 88.1256 68.5376 88.2955C68.9887 88.4127 69.4575 88.4713 69.9146 88.4713C71.9654 88.4713 73.8171 87.3228 74.7546 85.477C75.1179 84.7621 75.3523 84.0238 75.4519 83.2738C75.5398 82.6058 75.5867 81.9847 75.5867 81.3753C75.5867 76.7579 75.5867 72.1347 75.5867 67.5173C75.8913 67.6931 76.196 67.8689 76.5007 68.0447C76.5007 68.6014 76.5008 69.1346 76.5066 69.6268C76.5066 70.2362 76.5418 70.8573 76.6004 71.4667C76.7527 73.0488 77.3563 74.5489 78.3465 75.797C79.2841 76.9747 80.3681 77.6837 81.3056 78.217L83.0108 79.1955C84.3233 79.9455 85.63 80.6956 86.9426 81.4398C88.554 82.3539 90.1302 83.2328 91.6302 84.059C92.2631 84.4106 92.9428 84.6801 93.6401 84.8618C94.1557 84.9965 94.6714 85.061 95.1812 85.061C97.7125 85.061 99.822 83.4262 100.554 80.8948C100.613 80.6897 100.748 80.2268 100.789 79.6233L100.806 79.3362C100.836 78.9494 100.865 78.5158 100.865 78.0177C100.865 74.7012 100.865 71.3905 100.865 68.0799V65.3376C100.865 65.3083 100.865 65.279 100.865 65.2497V62.2554H100.877ZM92.644 43.4519C93.2534 44.5535 93.8745 45.6493 94.4839 46.7509C93.8686 45.6493 93.2534 44.5535 92.644 43.4519ZM70.3892 20.3182C70.6997 20.4706 71.0044 20.6405 71.3091 20.8163C74.6726 22.7558 78.0301 24.7071 81.3935 26.6349C78.0242 24.7012 74.6667 22.7558 71.3091 20.8163C71.0044 20.6405 70.6997 20.4706 70.3892 20.3182C70.0786 20.1659 69.7563 20.0311 69.4223 19.9198C69.7563 20.0252 70.0786 20.16 70.3892 20.3182ZM71.1568 59.4838C71.1568 59.4838 71.1275 59.4838 71.1099 59.478C71.1216 59.478 71.1392 59.478 71.1568 59.4838ZM70.8638 59.5893C70.8638 59.5893 70.8521 59.6127 70.8462 59.6244C70.8521 59.6127 70.858 59.601 70.8638 59.5893ZM68.2446 19.7264C68.2446 19.7264 68.1918 19.7264 68.1625 19.7264C68.1684 19.7264 68.1743 19.7264 68.1801 19.7264C68.2036 19.7264 68.2211 19.7264 68.2446 19.7264ZM67.2133 19.867C67.1605 19.8846 67.1078 19.9022 67.0609 19.9198C67.1137 19.9022 67.1664 19.8846 67.2133 19.867ZM66.7328 20.0545C66.6859 20.078 66.639 20.0955 66.5922 20.119C66.639 20.0955 66.6859 20.0721 66.7328 20.0545ZM31.7568 16.322C31.6982 16.3161 31.6455 16.322 31.5927 16.322C31.6162 16.322 31.6396 16.3102 31.6631 16.3102C31.6924 16.3102 31.7275 16.3102 31.7568 16.3161V16.322ZM31.3466 16.4157C31.3115 16.4392 31.2822 16.4685 31.2529 16.4978C31.2822 16.4685 31.3115 16.4333 31.3466 16.4157ZM31.206 16.5446C31.165 16.5974 31.1357 16.656 31.1064 16.7263C31.1298 16.656 31.165 16.5974 31.206 16.5446ZM6.19723 19.451C6.13863 19.4862 6.09176 19.5272 6.04488 19.5799C6.09176 19.5272 6.13863 19.4803 6.19723 19.451ZM5.99214 19.6444C5.93941 19.7264 5.88667 19.8201 5.85737 19.9432C5.89253 19.826 5.93941 19.7264 5.99214 19.6444ZM5.68158 21.0858C5.68158 21.0858 5.68158 21.0565 5.68158 21.0389C5.68158 21.0507 5.68158 21.0682 5.68158 21.0858C5.66986 27.9767 5.67572 34.8618 5.67572 41.7526C5.67572 34.8618 5.67572 27.9767 5.68158 21.0858ZM14.1663 69.5448C12.0568 68.3318 9.95323 67.1189 7.84964 65.8884C9.94737 67.113 12.0568 68.326 14.1663 69.5448ZM33.0284 80.344C33.2041 80.4143 33.3799 80.4729 33.5616 80.5198C33.3799 80.4729 33.1983 80.4085 33.0284 80.344ZM34.2764 80.6311C34.4288 80.6428 34.5753 80.6428 34.7218 80.6311C34.6397 80.637 34.5577 80.6487 34.4698 80.6487C34.4054 80.6487 34.3409 80.637 34.2706 80.637L34.2764 80.6311ZM35.9523 80.2678C35.7765 80.3557 35.6066 80.426 35.4308 80.4846C35.6066 80.426 35.7765 80.3616 35.9523 80.2678ZM34.8038 80.6253C34.9796 80.6077 35.1495 80.5725 35.3195 80.5198C35.1495 80.5667 34.9796 80.6077 34.8038 80.6253ZM69.7153 83.6547C69.7915 83.6723 69.8618 83.6781 69.9321 83.6781C69.9263 83.6781 69.9146 83.6781 69.9087 83.6781C69.8442 83.6781 69.7798 83.6723 69.7153 83.6547ZM70.19 83.6078C70.231 83.5844 70.2661 83.5609 70.3013 83.5316C70.2661 83.5609 70.231 83.5902 70.19 83.6078ZM70.3482 83.4906C70.395 83.4437 70.4361 83.3851 70.4712 83.3148C70.4361 83.3851 70.395 83.4379 70.3482 83.4906ZM73.5358 60.8022C72.9733 60.4799 72.4166 60.1459 71.8541 59.8178C71.7486 59.7592 71.6431 59.7006 71.5377 59.642C71.6431 59.7006 71.7486 59.7534 71.8541 59.8178C72.4166 60.1459 72.9733 60.4741 73.5358 60.8022C76.0085 62.232 78.4813 63.6617 80.9599 65.0797C78.4813 63.6617 76.0085 62.2261 73.5358 60.8022ZM81.1357 65.2086C81.2119 65.279 81.2646 65.361 81.288 65.4723C81.2646 65.3669 81.2119 65.2848 81.1357 65.2086ZM81.2998 69.5975C81.2998 70.0721 81.3291 70.5467 81.3759 71.0155C81.3291 70.5467 81.3056 70.0721 81.2998 69.5975ZM82.7822 73.4766C82.9346 73.5937 83.0928 73.7051 83.251 73.8047C83.0869 73.7051 82.9346 73.5937 82.7822 73.4766ZM94.853 80.2268C94.9878 80.262 95.1108 80.2737 95.2222 80.2678C95.2105 80.2678 95.1987 80.2678 95.187 80.2678C95.0874 80.2678 94.9761 80.2503 94.853 80.221V80.2268ZM95.5152 80.1975C95.4566 80.2268 95.3863 80.2503 95.3101 80.2561C95.3863 80.2444 95.4507 80.2268 95.5152 80.1975ZM95.5972 80.1448C95.6499 80.1038 95.7027 80.0569 95.7437 79.9924C95.6968 80.051 95.6499 80.1038 95.5972 80.1448ZM95.8081 79.9163C95.8667 79.8225 95.9136 79.7112 95.9546 79.5764C95.9136 79.7112 95.8667 79.8166 95.8081 79.9163Z" fill="#4737FF"/>
<path d="M95.1811 80.9534C95.0229 80.9534 94.8588 80.93 94.683 80.8831C94.3197 80.7893 93.9564 80.6429 93.6283 80.4612C92.0755 79.6057 90.5227 78.7385 88.9816 77.8595C87.716 77.1447 86.4561 76.4239 85.1963 75.6973L83.3564 74.6485C82.7705 74.3145 82.1025 73.8985 81.581 73.2422C81.077 72.6093 80.7841 71.8769 80.7079 71.0741C80.661 70.5819 80.6317 70.0897 80.6317 69.5975C80.62 68.2908 80.62 66.9783 80.6317 65.6716C78.4578 64.4235 76.3366 63.1988 74.2154 61.9742L71.4497 60.3628C71.4497 60.4565 71.4556 60.5503 71.4556 60.644V61.271C71.4556 62.4136 71.4497 63.5504 71.4321 64.693C71.4321 64.9567 71.3677 65.2321 71.2505 65.5427C70.9751 66.2575 70.4008 66.5974 69.6567 66.4743C69.2934 66.4157 68.9359 66.2927 68.6312 66.1286C67.6175 65.5778 66.6214 65.0036 65.6194 64.4293C64.3186 63.6793 63.0236 62.9293 61.7286 62.1792L58.1718 60.1225C57.5742 59.7768 56.8124 59.2729 56.2616 58.4643C55.8397 57.8431 55.5936 57.14 55.5174 56.3724C55.3944 55.0715 55.412 53.759 55.4295 52.4992C55.4354 52.0011 55.4413 51.503 55.4413 51.005C55.4354 48.3037 55.4413 45.6024 55.4588 42.907L55.4706 40.1823C55.4823 36.5493 55.4999 32.9222 55.5174 29.2893C55.5174 28.5393 55.6756 27.7892 55.9686 27.0685C56.3085 26.2482 56.8593 25.5919 57.6035 25.1173L58.4297 24.5957C59.8184 23.7168 61.2071 22.8379 62.59 21.9472C63.4631 21.3847 64.6174 20.6347 65.7542 19.8495C66.9261 19.0408 68.2269 18.8533 69.6215 19.2928C70.3891 19.5389 71.0688 19.9139 71.6431 20.2479L74.2447 21.748C76.7351 23.1894 79.2313 24.6309 81.7274 26.0665C83.5439 27.1095 85.0147 28.5451 86.0987 30.3382C86.6202 31.1995 87.1124 32.096 87.587 32.9574L95.0756 46.4404C95.9194 47.958 96.4292 49.3702 96.6343 50.7647C96.7104 51.3038 96.7515 51.8605 96.7515 52.423C96.7573 55.722 96.7573 59.0209 96.7515 62.3257V65.2673V68.1033C96.7515 71.414 96.7515 74.7247 96.7515 78.0353C96.7515 78.3752 96.728 78.715 96.7046 79.0549L96.6811 79.383C96.6694 79.5413 96.6284 79.676 96.605 79.7756C96.3823 80.5491 95.8667 80.9651 95.1811 80.9651V80.9534ZM71.0571 58.7924C71.2388 58.7924 71.4321 58.8393 71.6431 58.933C71.8071 59.0092 71.9595 59.0971 72.1118 59.185L74.8951 60.8022C77.028 62.0328 79.1609 63.2691 81.2997 64.4938C81.7685 64.7633 81.9911 65.1501 81.9853 65.6774C81.9677 66.9841 81.9735 68.2908 81.9853 69.5916C81.9853 70.0428 82.0146 70.4999 82.0556 70.9511C82.1083 71.4902 82.3075 71.9824 82.6415 72.4101C82.9755 72.832 83.4385 73.1426 84.0303 73.4824L85.8702 74.5313C87.13 75.252 88.3898 75.9728 89.6555 76.6876C91.1966 77.5607 92.7376 78.4221 94.2904 79.2776C94.5248 79.4065 94.7768 79.5061 95.0346 79.5764C95.1577 79.6116 95.2163 79.5998 95.228 79.5998C95.228 79.5998 95.269 79.5413 95.31 79.3948C95.3217 79.3537 95.3334 79.3127 95.3393 79.2776L95.3627 78.9436C95.3862 78.633 95.4096 78.3283 95.4096 78.0178C95.4096 74.7071 95.4096 71.3964 95.4096 68.0916V65.2555V62.9703C95.4096 59.4487 95.4096 55.9329 95.4096 52.4113C95.4096 51.9132 95.3745 51.4152 95.3041 50.9405C95.1225 49.71 94.6654 48.4502 93.9037 47.079L86.4093 33.5902C85.9405 32.7406 85.46 31.8617 84.9502 31.0237C83.9834 29.4299 82.6708 28.1525 81.0594 27.2267C78.5574 25.7911 76.0671 24.3496 73.5709 22.9082L70.9692 21.4081C70.4536 21.1093 69.85 20.7753 69.2113 20.5702C68.2093 20.2538 67.3538 20.371 66.5276 20.9452C65.3733 21.7421 64.2131 22.498 63.3283 23.0722C61.9454 23.9629 60.5508 24.8477 59.1621 25.7267L58.3359 26.2482C57.8203 26.5763 57.457 27.004 57.2284 27.5724C56.9999 28.1291 56.8827 28.7092 56.8769 29.2834C56.8593 32.9164 56.8476 36.5435 56.83 40.1764L56.8183 42.9011C56.8066 45.5966 56.7948 48.292 56.8007 50.9933C56.8007 51.4972 56.8007 52.007 56.789 52.5109C56.7714 53.7414 56.7538 55.0071 56.871 56.2376C56.9237 56.7767 57.0937 57.2689 57.3867 57.6967C57.6972 58.1537 58.1484 58.5346 58.8516 58.9447L62.4142 61.0015C63.7092 61.7515 65.01 62.5015 66.305 63.2516C67.2952 63.8258 68.2855 64.3883 69.2875 64.9391C69.4574 65.0329 69.6684 65.1032 69.8793 65.1383C69.9145 65.1442 69.9379 65.1442 69.9496 65.1442C69.9496 65.1383 69.9672 65.109 69.9848 65.0563C70.061 64.8629 70.0786 64.7399 70.0786 64.6754C70.0903 63.5387 70.0961 62.4019 70.0961 61.271V60.644C70.0961 60.5503 70.0961 60.4624 70.0961 60.3686C70.0903 60.1987 70.0844 60.0288 70.0961 59.8647C70.1196 59.4194 70.2778 59.103 70.5766 58.9213C70.7231 58.8334 70.8872 58.7865 71.063 58.7865L71.0571 58.7924Z" fill="black"/>
<path d="M69.9087 84.3579C69.7915 84.3579 69.6743 84.3403 69.5512 84.311C69.2172 84.2231 68.9125 84.1118 68.6606 83.9712L68.3676 83.8071C67.0316 83.0688 65.6956 82.3305 64.3713 81.5629C62.9592 80.7484 61.5529 79.9281 60.1466 79.1077C58.2363 77.9885 56.3202 76.8752 54.3983 75.7736C53.1267 75.047 52.0955 74.0274 51.2341 72.6621C50.695 71.8066 50.1794 70.9218 49.6813 70.0663L49.3063 69.4277C48.4449 67.9569 47.5894 66.4861 46.7281 65.0095L46.271 64.2243V66.2693C46.271 66.7381 46.2769 67.2069 46.2593 67.6756C46.2476 68.0799 46.189 68.455 46.0894 68.8007C45.8374 69.662 45.0815 70.0839 44.2143 69.8378C43.8686 69.7441 43.517 69.5976 43.2006 69.4159C40.9622 68.1327 38.7297 66.8436 36.4972 65.5545L32.5947 63.3044C31.2587 62.5368 30.4735 61.4234 30.2626 59.9937C30.204 59.5835 30.1747 59.1851 30.1571 58.8159C30.1454 58.5346 30.1454 58.2592 30.1454 57.978V55.5287C30.1454 43.5575 30.1454 31.5922 30.1454 19.621C30.1454 18.9647 30.1747 18.2675 30.2274 17.4823C30.2509 17.1072 30.3681 16.7615 30.4677 16.5037C30.6845 15.9178 31.2236 15.5838 31.8388 15.6716C32.1259 15.7068 32.4658 15.7654 32.7881 15.9178C33.3213 16.1639 33.8487 16.4393 34.3702 16.7322C38.4602 19.0644 42.5443 21.3965 46.6285 23.7345C48.2574 24.6661 49.6168 25.967 50.6657 27.5959C51.1169 28.2991 51.5388 29.0315 51.9431 29.7406C52.1248 30.057 52.3005 30.3675 52.4822 30.684L55.3593 35.606C55.3593 34.7915 55.3593 33.9712 55.3593 33.1567C55.3593 32.6879 55.4179 32.2309 55.4706 31.7914L55.4823 31.7035C55.5116 31.4457 55.5995 31.223 55.6874 31.0179C55.9569 30.4027 56.5019 30.0863 57.1289 30.1917C57.5039 30.2503 57.8144 30.35 58.0723 30.4847C58.6817 30.8011 59.3145 31.1469 60.0704 31.5805C63.0646 33.3091 66.0589 35.0435 69.0473 36.7779C70.0844 37.3756 70.7231 38.0729 71.0747 38.9636C71.3325 39.6198 71.4614 40.2878 71.4614 40.9617C71.4614 43.8095 71.4614 46.6514 71.4614 49.4991V55.183C71.4614 63.9255 71.4614 72.6622 71.4614 81.4047C71.4614 81.8324 71.4322 82.2719 71.3618 82.7582C71.3208 83.0454 71.2271 83.3442 71.0747 83.6431C70.8345 84.1118 70.4009 84.3755 69.9028 84.3814L69.9087 84.3579ZM45.7144 61.2652C45.9429 61.2652 46.1538 61.3824 46.2827 61.5699L46.3706 61.6988C46.4292 61.7926 46.482 61.8688 46.5288 61.9508L47.9117 64.3239C48.7672 65.7947 49.6286 67.2655 50.4841 68.7362L50.8591 69.3808C51.3513 70.2246 51.8611 71.0976 52.3826 71.9356C53.1209 73.1075 54.0057 73.9806 55.078 74.5958C57 75.7033 58.916 76.8166 60.8321 77.9358C62.2384 78.7561 63.6447 79.5765 65.051 80.391C66.3636 81.1527 67.6937 81.8852 69.0239 82.6235L69.3168 82.7875C69.4692 82.8754 69.6625 82.9458 69.8852 83.0043C69.9497 82.852 70.0024 82.6997 70.02 82.559C70.0786 82.1313 70.1079 81.7504 70.1079 81.3812C70.1079 72.6387 70.1079 63.902 70.1079 55.1654V49.4816C70.1079 46.6396 70.1079 43.7919 70.1079 40.95C70.1079 40.446 70.0083 39.9421 69.8149 39.4441C69.5805 38.8464 69.1352 38.3835 68.3734 37.9381C65.385 36.2037 62.3908 34.4693 59.3965 32.7407C58.6641 32.3188 58.0488 31.9789 57.457 31.6742C57.3339 31.6098 57.164 31.557 56.9472 31.5219C56.9472 31.5277 56.9414 31.5395 56.9355 31.5453C56.8886 31.6508 56.8417 31.768 56.83 31.85L56.8183 31.9379C56.7656 32.3598 56.7187 32.7641 56.7187 33.1567C56.707 34.2114 56.7187 35.272 56.7187 36.3267V37.8561C56.7187 38.1139 56.5781 38.3425 56.3495 38.4596L56.2558 38.5065C55.9511 38.653 55.5878 38.5534 55.4003 38.2721L55.3065 38.1374C55.2245 38.0202 55.1425 37.903 55.0721 37.7741L51.3161 31.3461C51.1286 31.0297 50.947 30.7132 50.7653 30.391C50.3727 29.6995 49.9626 28.9788 49.529 28.3108C48.5973 26.8693 47.3961 25.715 45.9546 24.8888C41.8705 22.5508 37.7863 20.2128 33.7022 17.8866C33.2158 17.6112 32.7178 17.3534 32.2255 17.1248C32.0849 17.0604 31.8915 17.0252 31.7275 17.0018C31.663 17.1776 31.5986 17.3827 31.5868 17.5584C31.5341 18.3143 31.5107 18.9823 31.5107 19.6034C31.5107 31.5746 31.5107 43.5399 31.5107 55.5111V57.9663C31.5107 58.2182 31.5107 58.476 31.5224 58.728C31.54 59.0679 31.5634 59.4312 31.6161 59.7827C31.7626 60.7906 32.3076 61.5582 33.2861 62.1149L37.1886 64.365C39.4211 65.6541 41.6536 66.9432 43.892 68.2264C44.1088 68.3495 44.3549 68.455 44.5952 68.5194C44.6948 68.5487 44.7417 68.537 44.7475 68.5311C44.7475 68.5311 44.7827 68.5018 44.812 68.4022C44.8823 68.1678 44.9174 67.9042 44.9292 67.6112C44.9467 67.16 44.9409 66.7147 44.9409 66.2635V64.74C44.9409 64.0075 44.9409 63.2751 44.9409 62.5426C44.9409 62.2789 44.935 61.9508 45.1401 61.5992C45.2573 61.3941 45.4741 61.2652 45.7085 61.2594H45.7261L45.7144 61.2652Z" fill="black"/>
<path d="M34.4755 81.3227C34.1239 81.3227 33.7606 81.2758 33.3856 81.1762C32.5946 80.9653 31.9207 80.5785 31.2762 80.2035L12.5782 69.416C10.8848 68.4433 9.19719 67.4647 7.50962 66.4803C7.14046 66.2635 6.77131 65.9998 6.38458 65.6717C5.64041 65.0447 5.20094 64.2244 5.08374 63.24C5.03101 62.8005 5.00171 62.4079 5.00171 62.0446C5.00171 56.5717 5.00171 51.093 5.00171 45.6201V37.9616C5.00171 32.3364 5.00171 26.7171 5.00757 21.0918C5.00757 20.6758 5.07788 20.2305 5.2068 19.7676C5.365 19.2226 5.6697 18.9589 5.90409 18.8359C6.2498 18.6542 6.65412 18.6367 7.11117 18.7832C7.38657 18.871 7.65025 18.9882 7.89049 19.123C10.164 20.4297 12.4317 21.7423 14.6994 23.0548L28.5456 31.0473C29.8523 31.8032 31.159 32.5532 32.4598 33.3208C33.7782 34.0943 34.874 35.1549 35.7236 36.485C36.4268 37.5866 37.1065 38.7234 37.7628 39.8191L40.9328 45.1162C42.1047 47.0733 43.2766 49.0363 44.4544 50.9934C45.2689 52.3528 45.7611 53.4603 46.0365 54.5853C46.2299 55.3529 46.3178 56.062 46.3178 56.7475C46.3178 62.0739 46.3178 67.4061 46.3178 72.7325C46.3178 73.3888 46.2416 73.9689 46.0834 74.508C45.7904 75.5158 45.1752 76.2717 44.2493 76.7463L42.7434 77.5198C40.5812 78.6331 38.419 79.7465 36.2686 80.8715C35.6885 81.1762 35.0966 81.3286 34.4755 81.3286V81.3227ZM6.53693 20.0313C6.53693 20.0313 6.51935 20.0781 6.50177 20.1309C6.40801 20.4649 6.35528 20.793 6.35528 21.0801C6.34942 26.7053 6.34942 32.3247 6.34942 37.9499V45.6084C6.34942 51.0813 6.34942 56.56 6.34942 62.0329C6.34942 62.3434 6.37286 62.6774 6.41973 63.0642C6.49591 63.697 6.77717 64.2244 7.2518 64.6287C7.57994 64.9041 7.88463 65.1268 8.18933 65.3025C9.87104 66.287 11.5645 67.2597 13.252 68.2323L31.9559 79.0199C32.5536 79.3656 33.122 79.6937 33.7372 79.8578C34.4286 80.0395 35.0322 79.9809 35.6416 79.6586C37.7979 78.5335 39.9601 77.4143 42.1223 76.301L43.6224 75.5276C44.2142 75.2229 44.5892 74.7599 44.7767 74.1154C44.8998 73.6994 44.9584 73.2423 44.9525 72.7149C44.9525 67.3827 44.9525 62.0563 44.9525 56.7299C44.9525 56.1557 44.8763 55.558 44.7122 54.8959C44.4661 53.9056 44.0267 52.9095 43.2825 51.6731C42.1047 49.716 40.9328 47.7589 39.7609 45.7959L36.5908 40.493C35.9404 39.4031 35.2666 38.2781 34.5751 37.194C33.8427 36.0455 32.8993 35.1314 31.7684 34.4693C30.4676 33.7076 29.1667 32.9575 27.86 32.2016L14.0138 24.2091C11.7461 22.8966 9.47259 21.5899 7.20492 20.2774C7.05257 20.1895 6.87092 20.1133 6.68928 20.0547C6.60724 20.0313 6.56036 20.0195 6.53107 20.0195L6.53693 20.0313Z" fill="black"/>
<path d="M85.1493 71.3145C85.1493 71.379 85.0966 71.4024 85.0321 71.3614L84.2997 70.9454C84.2352 70.9102 84.1825 70.8282 84.1825 70.7637V67.1425C84.1825 67.078 84.2352 67.0546 84.2997 67.0956L85.0321 67.5116C85.0966 67.5468 85.1493 67.6288 85.1493 67.6933V71.3145ZM89.7608 73.9572C89.7608 74.0217 89.7081 74.0451 89.6437 74.0041L88.794 73.5177C88.7588 73.4943 88.7237 73.4591 88.7003 73.4181L86.8486 69.9375V72.2931C86.8486 72.3575 86.7959 72.381 86.7314 72.3399L85.999 71.9239C85.9345 71.8888 85.8818 71.8067 85.8818 71.7423V68.121C85.8818 68.0566 85.9345 68.0331 85.999 68.0742L86.79 68.5253C86.8252 68.5488 86.8603 68.5839 86.8838 68.625L88.794 72.2169V69.7852C88.794 69.7207 88.8467 69.6973 88.9112 69.7383L89.6437 70.1543C89.7081 70.1895 89.7608 70.2715 89.7608 70.336V73.9572ZM93.593 73.254C93.593 73.3185 93.5403 73.3419 93.4758 73.3009L91.7062 72.2872C91.5773 72.2169 91.4718 72.2638 91.4718 72.3927V73.8459C91.4718 73.9748 91.5773 74.1447 91.7121 74.2267L93.4817 75.2405C93.5461 75.2756 93.5989 75.3576 93.5989 75.4221V76.1546C93.5989 76.219 93.5461 76.2424 93.4817 76.2014L91.7121 75.1877C91.05 74.8068 90.5109 73.9631 90.5109 73.3009V71.8419C90.5109 71.1797 91.05 70.9512 91.7121 71.3321L93.4817 72.3458C93.5461 72.381 93.5989 72.463 93.5989 72.5275V73.2599L93.593 73.254Z" fill="black"/>
</g>
</g>
<defs>
<clipPath id="clip0_332_3150">
<rect width="100" height="100" fill="white" transform="translate(0.876709)"/>
</clipPath>
<clipPath id="clip1_332_3150">
<rect width="100" height="76.9542" fill="white" transform="translate(0.876709 11.5229)"/>
</clipPath>
</defs>
</svg>
