<svg width="101" height="100" viewBox="0 0 101 100" fill="none" xmlns="http://www.w3.org/2000/svg">
<g clip-path="url(#clip0_318_2949)">
<path fill-rule="evenodd" clip-rule="evenodd" d="M57.1022 2.98752C57.1022 1.33892 55.7633 0 54.1147 0H47.6478C45.9992 0 44.6602 1.33892 44.6602 2.98752V15.056C44.6602 18.1073 40.6162 19.1912 39.086 16.5498L33.0381 6.07523C32.2092 4.64523 30.3875 4.15338 28.9575 4.98224L23.3559 8.21568C21.9259 9.04454 21.4341 10.8662 22.2629 12.2962L27.7735 21.8417C29.3037 24.4922 26.3435 27.4524 23.6929 25.9222L14.1474 20.4117C12.7174 19.5828 10.8958 20.0747 10.0669 21.5047L6.83348 27.1063C6.00463 28.5363 6.49647 30.358 7.92648 31.1868L17.5448 36.7338C20.1954 38.264 19.1115 42.308 16.0511 42.308H4.84787C3.19927 42.308 1.86035 43.647 1.86035 45.2956V51.7625C1.86035 53.4111 3.19927 54.75 4.84787 54.75H21.1517C24.203 54.75 25.2869 58.7941 22.6455 60.3243L7.92648 68.8223C6.49647 69.6511 6.00463 71.4728 6.83348 72.9028L10.0669 78.5044C10.8958 79.9344 12.7174 80.4172 14.1474 79.5974L23.6929 74.0869C26.3343 72.5567 29.3037 75.5169 27.7735 78.1674L22.2629 87.7129C21.4341 89.1429 21.9259 90.9646 23.3559 91.7934L28.9575 95.0269C30.3875 95.8466 32.2092 95.3639 33.0381 93.9339L39.086 83.4593C40.6162 80.8179 44.6602 81.9018 44.6602 84.9531V97.0216C44.6602 98.6702 45.9992 100.009 47.6478 100.009H54.1147C55.7633 100.009 57.1022 98.6702 57.1022 97.0216V82.503C57.1022 79.4517 61.1463 78.3678 62.6765 81.0092L68.7061 91.4473C69.535 92.8773 71.3567 93.3692 72.7867 92.5403L78.3883 89.3069C79.8183 88.4871 80.3101 86.6563 79.4813 85.2263L73.9707 75.6808C72.4406 73.0303 75.4007 70.0701 78.0513 71.6003L87.5968 77.1108C89.0268 77.9397 90.8484 77.4479 91.6773 76.0178L94.9107 70.4162C95.7396 68.9862 95.2477 67.1646 93.8177 66.3357L83.4069 60.3243C80.7564 58.7941 81.8403 54.75 84.9007 54.75H96.8963C98.5449 54.75 99.8839 53.4111 99.8839 51.7625V45.2956C99.8839 43.647 98.5449 42.308 96.8963 42.308H85.6931C82.6418 42.308 81.558 38.264 84.1994 36.7338L93.8177 31.1868C95.2477 30.358 95.7396 28.5363 94.9107 27.1063L91.6773 21.5047C90.8484 20.0747 89.0268 19.5828 87.5968 20.4117L78.0513 25.9222C75.4007 27.4524 72.4406 24.4922 73.9707 21.8417L79.4813 12.2962C80.3101 10.8662 79.8183 9.04454 78.3883 8.21568L72.7867 4.98224C71.3567 4.15338 69.535 4.64523 68.7061 6.07523L62.6765 16.5133C61.1463 19.1639 57.1022 18.08 57.1022 15.0196V2.98752Z" fill="#F4ABC9"/>
</g>
<defs>
<clipPath id="clip0_318_2949">
<rect width="98.0326" height="100" fill="white" transform="translate(1.86035)"/>
</clipPath>
</defs>
</svg>
