<svg width="220" height="242" viewBox="0 0 220 242" fill="none" xmlns="http://www.w3.org/2000/svg">
<path d="M-0.000698248 76.8835L0.928191 167.66C1.02597 178.273 6.86819 188.016 16.206 193.238L96.1637 237.84C105.502 243.062 116.966 242.941 126.206 237.55L205.235 191.352C214.475 185.961 220.097 176.097 219.999 165.485L219.07 74.7078C218.973 64.095 213.13 54.3525 203.793 49.1307L123.835 4.50372C114.497 -0.718065 103.033 -0.59719 93.7926 4.79382L14.7637 51.0163C5.52375 56.4073 -0.098476 66.2707 -0.000698248 76.8835Z" fill="black"/>
<path d="M125.474 101.373C124.203 101.373 122.272 101.422 120.316 101.422C115.647 101.422 110.954 101.373 106.285 101.349C100.956 101.325 95.6272 101.349 90.2983 101.277C88.3428 101.253 86.3628 101.011 84.4317 100.6C81.645 99.9955 79.1517 98.8109 76.7072 97.4088C73.6272 95.644 70.5228 93.976 67.4428 92.2595C64.3139 90.5189 61.185 88.73 58.0561 86.9894C55.8805 85.7806 53.705 84.5961 51.5539 83.3873C48.9383 81.9127 46.3228 80.4138 43.6828 78.9633C40.9939 77.4645 38.2806 75.9898 35.5917 74.4909C33.3917 73.2822 31.1917 72.0251 29.0161 70.8164C26.8406 69.6076 24.6406 68.3989 22.4894 67.1659C21.1694 66.4165 19.8494 65.6429 18.5783 64.7968C18.0161 64.4342 17.5028 63.9265 17.3806 63.2013C17.2094 62.2101 17.7961 61.5574 18.505 61.0739C19.7272 60.2519 21.0228 59.5267 22.2694 58.7772C23.9561 57.7619 25.6672 56.7465 27.3783 55.7554C28.9917 54.8125 30.605 53.9181 32.1939 52.9752C33.9294 51.9599 35.6161 50.9204 37.3517 49.9292C39.4783 48.6963 41.6294 47.4634 43.7561 46.2304C45.8339 44.9975 47.9117 43.7404 49.9894 42.5317C51.6272 41.5888 53.2894 40.6944 54.9272 39.7516C56.1005 39.0747 57.2494 38.3011 58.4228 37.6242C59.6205 36.8989 60.8672 36.2462 62.065 35.5209C63.2872 34.7957 64.485 34.0463 65.7317 33.3452C66.9783 32.6199 68.2494 31.943 69.4717 31.2178C71.1828 30.2266 72.8694 29.1871 74.5805 28.1959C76.1694 27.2531 77.7583 26.3586 79.3472 25.44C80.5205 24.7631 81.6939 24.0862 82.8672 23.4093C84.1383 22.6599 85.4339 21.9104 86.705 21.161C88.8072 19.9039 90.9094 18.6468 93.0361 17.3897C94.9428 16.2777 96.8494 15.1656 98.7561 14.0536C100.418 13.1108 102.081 12.1679 103.743 11.2493C104.403 10.8625 105.063 10.4515 105.772 10.1372C106.383 9.87132 107.018 9.62957 107.678 9.48452C108.436 9.3153 109.218 9.26695 110.001 9.2186C111.467 9.1219 112.763 9.7021 113.985 10.3548C115.916 11.3943 117.798 12.4822 119.681 13.5459C122.272 14.9964 124.863 16.4227 127.454 17.8732C130.143 19.3721 132.856 20.8951 135.545 22.3939C138.161 23.8444 140.752 25.2949 143.367 26.7454C146.081 28.2685 148.794 29.7673 151.507 31.2903C154.147 32.765 156.787 34.2638 159.452 35.7627C161.578 36.9473 163.729 38.1077 165.856 39.3164C168.643 40.8878 171.429 42.435 174.143 44.103C175.756 45.0942 176.905 46.5205 177.516 48.3337C177.687 48.8655 177.761 49.4457 177.785 50.0017C177.932 52.806 178.054 55.6103 178.176 58.4146C178.249 60.0585 178.347 61.7024 178.445 63.3705C178.543 64.8693 178.641 66.3682 178.714 67.867C178.812 69.6318 178.909 71.4207 178.934 73.1855C178.934 74.3217 178.421 75.3129 177.761 76.2315C176.636 77.8029 175.072 78.8424 173.409 79.8094C170.769 81.3325 168.105 82.8555 165.441 84.3785C163.021 85.7806 160.625 87.1828 158.229 88.5849C155.394 90.253 152.558 91.8969 149.723 93.565C146.789 95.3056 143.856 97.0462 140.898 98.7626C139.309 99.6812 137.574 100.261 135.814 100.721C132.661 101.567 129.434 101.47 125.523 101.446L125.474 101.373Z" fill="white"/>
<path d="M46.298 179.942C46.298 180.715 46.298 181.32 46.298 181.924C46.3468 185.864 46.3957 189.781 46.3957 193.721C46.3957 194.398 46.2735 195.123 46.0535 195.752C45.5157 197.251 44.5624 197.493 43.1935 196.985C41.8491 196.501 40.578 195.728 39.3068 195.027C36.9357 193.745 34.6135 192.416 32.2668 191.11C29.5535 189.611 26.8646 188.088 24.1757 186.565C21.5357 185.091 18.8713 183.64 16.2068 182.141C14.4468 181.15 12.9313 179.917 12.1002 178.032C11.6846 177.113 11.3668 176.17 11.2446 175.155C10.7557 170.9 10.9757 166.621 10.9268 162.342C10.6091 134.251 10.3402 106.184 10.0713 78.0925C10.0713 77.0046 10.1446 75.8926 10.2668 74.8289C10.3157 74.3696 10.5357 73.9102 10.7802 73.4993C11.1957 72.8224 12.3202 72.5806 13.078 72.8465C15.4002 73.6443 17.478 74.9498 19.6291 76.1343C21.8046 77.3189 23.9557 78.5276 26.1313 79.7122C28.1846 80.8484 30.238 82.033 32.2913 83.1692C34.9557 84.6439 37.6691 86.0702 40.3335 87.5449C42.2402 88.5844 44.098 89.6965 46.0291 90.7118C48.7913 92.1623 51.2602 93.9754 53.3624 96.2479C55.5135 98.5445 57.2002 101.131 58.7157 103.839C60.1335 106.353 61.6246 108.819 63.1157 111.285C65.1691 114.718 67.2468 118.126 69.3246 121.559C69.6424 122.091 70.0091 122.599 70.4491 123.106C70.4491 122.889 70.4735 122.695 70.4735 122.478C70.4491 118.851 70.4246 115.225 70.3513 111.623C70.3268 110.366 70.498 109.133 70.7913 107.924C71.1091 106.619 72.1602 106.16 73.5046 106.571C75.3135 107.151 76.8535 108.214 78.5157 109.061C80.7646 110.221 82.9646 111.478 85.1891 112.687C87.0468 113.726 88.8802 114.766 90.7135 115.805C93.8424 117.57 96.9957 119.335 100.125 121.124C102.007 122.188 103.816 123.372 104.696 125.451C105.062 126.322 105.38 127.264 105.502 128.207C105.698 129.779 105.771 131.374 105.771 132.97C106.089 164.083 106.407 195.196 106.725 226.309C106.725 227.252 106.554 228.243 106.285 229.162C105.918 230.54 104.696 230.999 103.278 230.322C101.738 229.573 100.222 228.775 98.7313 227.977C96.9713 227.034 95.2602 226.067 93.5246 225.1C89.2957 222.755 85.0424 220.386 80.8135 218.017C77.5868 216.204 74.3602 214.367 71.1335 212.529C69.7891 211.78 68.4446 211.031 67.1246 210.233C65.1446 209.024 63.5313 207.404 62.2113 205.519C60.6224 203.198 59.1313 200.805 57.6646 198.411C55.9535 195.655 54.3157 192.851 52.6535 190.071C50.9913 187.291 49.3291 184.535 47.6668 181.755C47.3491 181.247 47.0557 180.715 46.7135 180.207C46.6646 180.111 46.518 180.062 46.2735 179.893L46.298 179.942Z" fill="white"/>
<path d="M174.948 180.304C174.093 180.812 173.384 181.247 172.675 181.658C169.644 183.423 166.588 185.163 163.582 186.928C160.991 188.451 158.4 189.998 155.808 191.521C154.464 192.295 153.12 193.069 151.775 193.818C150.113 194.761 149.893 196.066 150.04 197.734C150.064 198 150.137 198.266 150.137 198.556C150.186 201.288 150.26 204.044 150.211 206.776C150.162 209.483 149.428 211.973 147.204 213.762C146.055 214.681 144.784 215.43 143.513 216.18C140.824 217.799 138.111 219.395 135.422 220.991C132.782 222.538 130.142 224.061 127.502 225.608C125.228 226.938 122.931 228.267 120.633 229.549C119.753 230.032 118.873 230.515 117.822 230.564C116.991 230.612 116.282 230.129 115.964 229.331C115.622 228.509 115.475 227.663 115.451 226.768C115.255 206.244 115.035 185.719 114.864 165.171C114.864 164.204 114.937 163.237 115.06 162.27C115.206 161.182 115.377 160.07 115.695 159.006C116.477 156.323 117.455 153.736 118.873 151.318C120.144 149.118 121.268 146.846 122.491 144.598C123.322 143.051 124.226 141.528 125.082 139.98C126.011 138.312 126.915 136.644 127.844 134.976C128.895 133.042 129.946 131.108 130.997 129.198C131.975 127.409 132.953 125.645 133.931 123.88C134.566 122.744 135.177 121.583 135.788 120.447C136.4 119.311 137.011 118.175 137.622 117.038C138.331 115.733 139.015 114.427 139.773 113.146C140.311 112.252 140.971 111.43 141.582 110.584C142.584 109.157 143.733 107.852 145.028 106.716C146.104 105.773 147.228 104.902 148.426 104.105C149.697 103.259 151.017 102.509 152.337 101.76C154.782 100.358 157.226 98.9555 159.671 97.5533C161.748 96.3446 163.802 95.1116 165.88 93.9029C167.737 92.815 169.62 91.7271 171.477 90.6151C172.651 89.914 173.775 89.1646 174.973 88.5361C175.902 88.0284 176.88 87.6174 177.882 87.279C178.762 86.9647 179.691 86.7229 180.595 86.6262C182.526 86.4328 184.237 87.1097 185.826 88.1493C188.393 89.8173 190.984 91.4612 193.575 93.1051C195.775 94.5073 198 95.8611 200.224 97.2632C202.131 98.4478 204.013 99.6324 205.895 100.841C207.362 101.784 208.193 103.21 208.731 104.83C209.293 106.45 209.415 108.142 209.44 109.834C209.635 130.455 209.88 151.077 210.026 171.698C210.026 174.381 209.073 176.75 206.922 178.588C205.284 179.99 203.402 180.981 201.568 182.117C198.513 184.003 195.433 185.84 192.353 187.678C189.762 189.225 187.171 190.748 184.555 192.247C182.526 193.431 180.473 194.592 178.395 195.704C177.417 196.235 176.024 195.921 175.633 195.099C175.34 194.471 175.12 193.77 175.095 193.093C174.997 189.104 174.973 185.115 174.924 181.126C174.924 180.909 174.924 180.715 174.924 180.352L174.948 180.304Z" fill="white"/>
<path d="M184.091 183.979C184.091 184.124 183.969 184.317 183.822 184.414L182.111 185.405C181.965 185.502 181.842 185.429 181.842 185.284V176.654C181.842 176.509 181.94 176.315 182.087 176.219L183.798 175.228C183.945 175.131 184.067 175.203 184.067 175.348V183.979H184.091ZM194.92 177.693C194.92 177.838 194.798 178.032 194.651 178.129L192.647 179.289C192.647 179.289 192.476 179.337 192.427 179.289L188.076 176.05V181.658C188.076 181.803 187.978 181.997 187.807 182.093L186.096 183.084C185.949 183.181 185.827 183.109 185.827 182.964V174.333C185.827 174.188 185.925 173.995 186.071 173.898L187.929 172.81C187.929 172.81 188.1 172.762 188.149 172.81L192.647 176.17V170.368C192.647 170.223 192.745 170.03 192.916 169.933L194.627 168.942C194.773 168.845 194.896 168.918 194.896 169.063V177.693H194.92ZM203.891 165.558C203.891 165.703 203.769 165.896 203.622 165.993L199.467 168.41C199.173 168.604 198.905 168.99 198.905 169.305V172.762C198.905 173.076 199.173 173.173 199.467 173.003L203.622 170.586C203.769 170.489 203.891 170.562 203.891 170.707V172.447C203.891 172.593 203.769 172.786 203.622 172.883L199.467 175.3C197.902 176.195 196.631 175.663 196.631 174.067V170.586C196.631 169.015 197.878 166.984 199.442 166.089L203.598 163.672C203.745 163.575 203.867 163.648 203.867 163.793V165.533L203.891 165.558Z" fill="black"/>
</svg>
